<?xml version="1.0" encoding="UTF-8" standalone="no"?>

<svg xmlns="http://www.w3.org/2000/svg" width="200" height="200" viewBox="0 0 1052 750">
  <title>Schreibtisch</title>
	<desc>Source: https://commons.wikimedia.org/wiki/File:Ryansdesk.svg</desc>
    <g transform="matrix(2.7783469,0,0,3.2013129,-21.016037,-253.29761)" id="g2276">
      <path d="M 307.73557,292.40223 C 307.4068,292.07346 307.40827,291.09964 307.73884,290.23819 C 308.13755,289.19918 307.94302,288.91718 307.16099,289.4005 C 306.5126,289.80123 305.08613,289.84472 303.99105,289.49716 C 302.44598,289.00677 302,287.98105 302,284.91791 C 302,281.58604 302.47757,280.68017 305.06309,279.10783 L 308.12617,277.24505 L 299.06309,274.4649 C 294.07839,272.93582 290,271.31855 290,270.87097 C 290,270.42339 288.5375,269.68022 286.75,269.21949 C 284.63606,268.67461 283.39755,267.68656 283.20692,266.39291 C 282.95811,264.70441 284.99697,263.55167 296.70692,258.76021 C 323.15534,247.93809 333.7345,244 336.35825,244 L 339,244 L 339,234.625 C 339,229.46875 339.27935,223.85327 339.62077,222.14616 C 340.16133,219.44336 339.89914,218.91215 337.59154,218.0348 C 335.40904,217.20502 302.88966,209.55007 256,198.82844 C 251.325,197.75947 233.21588,193.53576 215.75751,189.44243 C 198.29914,185.34909 183.34807,182 182.53291,182 C 181.2978,182 181.00489,184.62499 180.77539,197.75 C 180.51326,212.74154 180.40369,213.5 178.5,213.5 C 176.59631,213.5 176.48674,212.74154 176.22461,197.75 C 176.06861,188.82842 175.54333,182 175.01302,182 C 173.94347,182 132.32797,193.55318 129.52993,194.62689 C 127.79549,195.29246 127.72836,196.55324 128.34329,216.91618 C 128.70178,228.78728 128.9962,242.14027 128.99755,246.58948 C 128.99987,254.24676 129.13357,254.73983 131.5,255.81805 C 133.56806,256.76032 134,257.65735 134,261.00995 C 134,263.98381 133.53411,265.21603 132.25,265.63845 C 131.2875,265.95507 129.08199,266.84095 127.34887,267.60706 C 125.61575,268.37318 123.50481,269 122.65789,269 C 121.81097,269 120.87145,269.39899 120.57006,269.88664 C 120.26868,270.37429 118.32962,271.08956 116.26105,271.47612 C 114.19247,271.86269 112.05,272.52885 111.5,272.95648 C 110.95,273.38411 107.8,274.70537 104.5,275.89261 C 101.2,277.07986 97.6,278.44203 96.5,278.91967 C 86.765808,283.14641 77.987484,286.32775 75.5,286.53027 C 73.85,286.6646 71.7125,287.09838 70.75,287.49424 C 68.45377,288.43863 65.911487,287.4201 66.490794,285.78785 C 67.207055,283.76972 23.762743,267.60536 18.25,267.83886 C 15.205596,267.96781 14,267.62529 14,266.63141 C 14,265.8683 13.121373,264.62656 12.047496,263.87197 C 10.16591,262.54983 10.064708,260.39334 9.2612314,204.5 C 8.8026634,172.6 8.6687904,146.19661 8.9637357,145.8258 C 9.4822952,145.17386 23.565447,142.3062 86,130.13939 L 115.5,124.39064 L 115.79568,117.10282 C 115.98321,112.4805 115.65125,109.28471 114.88806,108.36512 C 113.07625,106.18202 114.72842,105.26148 122.5,104.12399 C 126.35,103.56048 137.375,101.73731 147,100.07251 C 163.41281,97.233645 166.11526,97.04474 190.5,97.031814 C 214.11941,97.019293 218.33123,97.28741 236.5,99.960094 C 275.46721,105.69229 272.21341,105.00492 271.63644,107.38273 C 270.87694,110.51283 270.57489,122.90822 271.24187,123.5752 C 271.7209,124.05423 314.36619,131.286 347,136.42223 C 351.675,137.15803 361.8851,138.7681 369.68911,140.00016 C 384.34495,142.31397 387.58028,143.86722 382.53356,146.16666 C 381.04607,146.84441 379.98915,148.27402 379.80328,149.85973 C 379.56057,151.93022 378.70106,152.66955 375.5,153.5613 L 371.5,154.67563 L 370.83924,169.08781 C 370.47583,177.01452 370.01462,198.45162 369.81434,216.72582 L 369.4502,249.95165 L 373.2251,249.34801 L 377,248.74438 L 377,253.15295 C 377,257.19665 376.73447,257.66175 373.79174,258.77251 C 371.28425,259.71898 370.8474,260.2474 371.79174,261.19174 C 373.66642,263.06642 373.22365,264.17323 370.75,263.79581 C 369.5125,263.607 368.60282,262.92975 368.72849,262.2908 C 368.95693,261.12927 366.01947,262.28726 351,269.27962 C 346.875,271.20003 336.975,275.77191 329,279.43936 C 311.97133,287.2703 309.20665,288.89165 310.99623,289.99767 C 311.68923,290.42597 311.94702,291.2767 311.5691,291.8882 C 310.82812,293.08712 308.70512,293.37179 307.73557,292.40223 z M 362,236.69333 L 362,223.38667 L 354.85484,221.67183 C 350.925,220.72867 347.60233,220.07917 347.47114,220.22849 C 347.33994,220.37782 347.06776,226.30743 346.8663,233.4054 L 346.5,246.3108 L 352.5,248.03719 C 362.73545,250.98225 362,251.86045 362,236.69333 z M 177.91667,112.36734 C 178.14583,112.1653 176.45833,112 174.16667,112 C 171.875,112 170,112.47039 170,113.04531 C 170,113.98344 176.73808,113.4064 177.91667,112.36734 z M 211,113 C 211,112.45 208.8625,112.05924 206.25,112.13164 C 201.61058,112.26022 201.58148,112.28043 205,113 C 210.2121,114.0971 211,114.0971 211,113 z " style="fill:#e7b48a" id="path2290"/>
      <path style="fill:#ebae73" id="path2288" d="M 308.47301,291.95633 C 308.14793,291.43035 308.17123,290.53196 308.52477,289.95992 C 308.93612,289.29435 308.30052,289.13746 306.75959,289.5242 C 303.52525,290.33597 302.1689,288.3727 302.7517,283.72296 C 303.0964,280.97293 303.91311,279.58545 305.75533,278.62021 C 308.81228,277.01851 308.64077,276.91216 298.25,273.96609 C 293.7125,272.67958 290,271.13457 290,270.53273 C 290,269.93089 288.60888,268.91339 286.90862,268.27161 C 285.14716,267.60673 284.10138,266.64499 284.47771,266.03606 C 284.84098,265.44828 285.51867,265.20252 285.98369,265.48992 C 286.44871,265.77732 287.05709,265.44716 287.33564,264.75623 C 287.66993,263.92707 287.86894,264.03654 287.92105,265.07825 C 287.97228,266.10231 289.66795,267.07546 292.75,267.8496 C 295.3625,268.50581 300.65,269.88082 304.5,270.90519 C 312.34636,272.99287 312.20204,273.02327 327.27504,266.1082 C 331.00132,264.39869 334.71382,263 335.52504,263 C 336.33627,263 337,262.55 337,262 C 337,261.45 336.45855,261 335.79677,261 C 334.02638,261 314.77983,254.88683 315.2066,254.46007 C 315.78492,253.88175 330.12612,256.94587 334.2067,258.51961 C 336.24538,259.30586 338.10435,259.62309 338.33773,259.22458 C 338.57112,258.82606 338.92811,249.29582 339.13104,238.04628 L 339.5,217.59256 L 336,216.79528 C 281.67742,204.42096 185.65881,182.2303 182.75,181.37799 C 181.13501,180.90478 181,182.09657 181,196.82562 C 181,212.97322 180.66112,214.45923 177.25,213.26936 C 176.32086,212.94526 176,208.76157 176,196.97057 L 176,181.1078 L 171.25,182.46832 C 151.27718,188.18905 130.07807,194 129.18091,194 C 128.5683,194 127.9621,191.50829 127.78203,188.25 C 127.60725,185.0875 127.55462,193.75 127.66508,207.5 C 127.77553,221.25 127.89608,237.51848 127.93295,243.65217 L 128,254.80435 L 131.05903,255.87073 C 133.90667,256.86342 134.09671,257.2324 133.80903,261.20993 C 133.56524,264.58066 133.07776,265.54971 131.5,265.79992 C 130.4,265.97437 128.825,266.38806 128,266.71923 C 127.175,267.0504 125.35989,267.41649 123.96642,267.53278 C 122.57295,267.64906 119.45093,268.70175 117.02859,269.8721 C 114.60625,271.04244 111.79094,272 110.77233,272 C 109.75373,272 107.25075,272.84999 105.21016,273.88887 C 103.16957,274.92775 97.9,276.98067 93.5,278.45092 C 89.1,279.92116 84.523569,281.60291 83.330154,282.18813 C 82.136739,282.77335 79.324239,283.30031 77.080154,283.35915 C 74.836069,283.41799 73,283.77911 73,284.16164 C 73,285.39698 69.899843,288 68.428571,288 C 67.642857,288 67,287.13722 67,286.08271 C 67,284.70805 65.655657,283.66942 62.25,282.41289 C 55.612026,279.9638 38.105136,273.09922 34.5,271.53191 C 24.55438,267.20814 19.607402,265.67779 19.23056,266.80832 C 18.664452,268.50664 15,268.2887 15,266.5567 C 15,265.76289 14.038891,264.44022 12.864203,263.61744 C 10.744921,262.13303 10.725514,261.76334 10.354544,215.81073 C 10.148921,190.33983 9.8244026,164.2125 9.6333922,157.75 L 9.2861007,146 L 12.084033,146 C 13.622896,146 15.123423,145.60931 15.418538,145.13181 C 15.713653,144.6543 18.218953,143.96331 20.985873,143.59626 C 23.752792,143.22922 32.650393,141.56052 40.758318,139.88805 C 48.866243,138.21558 57.885471,136.46727 60.801047,136.00293 C 63.716623,135.53858 68.216623,134.6522 70.801047,134.03319 C 78.496879,132.18994 106.24635,126.84898 114,125.71867 C 116.48687,125.35614 117.75374,122.84985 117.35936,119.07274 C 117.15419,117.10773 116.77113,113.5738 116.50812,111.21956 C 116.09043,107.48077 116.31274,106.83298 118.26496,106.10032 C 119.49423,105.63897 131.31881,103.40267 144.5418,101.13076 C 167.77646,97.138678 169.32634,97 190.70756,97 C 213.84222,97 211.13479,96.71841 265.4186,104.77042 L 270.3372,105.5 L 270.09452,112.96535 C 269.96105,117.0713 269.63362,120.7838 269.3669,121.21535 C 269.10019,121.64691 267.67102,122.06128 266.19098,122.13618 C 263.52114,122.27129 263.51964,122.27555 266,122.67778 C 267.375,122.90076 269.4,123.48722 270.5,123.98101 C 271.6,124.47481 277,125.59606 282.5,126.47267 C 288,127.34929 294.75,128.51345 297.5,129.05971 C 302.84627,130.12169 314.17052,131.98339 333.5,134.97811 C 347.54357,137.15387 360.6084,139.30293 374.37566,141.70182 C 384.22827,143.4186 384.65388,144.15126 376.5,145.35881 C 375.4,145.52172 373.825,145.91479 373,146.2323 C 368.48677,147.96926 353.29385,152.32055 352.00594,152.24505 C 351.17767,152.1965 349.6,152.53936 348.5,153.00698 C 347.4,153.4746 342.45,154.87467 337.5,156.11826 C 332.55,157.36184 328.275,158.6871 328,159.06327 C 327.725,159.43944 325.3387,160.00801 322.69711,160.32675 C 320.05552,160.6455 316.62482,161.53955 315.07333,162.31353 C 313.15484,163.2706 311.70822,163.41622 310.55122,162.76872 C 309.61554,162.2451 308.5659,162.10077 308.21867,162.448 C 307.87144,162.79523 308.58019,163.33896 309.79367,163.65629 C 311.00715,163.97363 312,164.82437 312,165.54683 C 312,166.511 312.73146,166.6433 314.75,166.0442 C 316.2625,165.5953 322.9,163.64141 329.5,161.70222 C 336.1,159.76303 349.375,155.8345 359,152.97216 C 368.625,150.10982 377.12778,147.70762 377.89506,147.63395 C 378.66332,147.56018 379.37362,148.49882 379.47596,149.72304 C 379.6244,151.49886 378.84083,152.2192 375.58089,153.30377 L 371.5,154.66146 L 370.86203,163.58073 C 370.51115,168.48633 369.94825,189.92409 369.61115,211.2202 L 368.99823,249.9404 L 372.74912,249.7202 C 376.39777,249.506 376.50837,249.6007 376.80707,253.19481 C 377.07838,256.45917 376.74976,257.07804 373.98631,258.50708 C 371.53644,259.77396 371.10109,260.41688 371.9778,261.47325 C 372.78673,262.44796 372.79308,263.00985 372.00067,263.49959 C 370.50394,264.42462 367.72561,263.25299 368.48856,262.01852 C 369.35394,260.6183 367.47501,261.36191 351.5,268.74188 C 314.34734,285.90529 310,288.03502 310,289.07236 C 310,289.58256 310.45,290 311,290 C 311.55,290 312,290.40186 312,290.89301 C 312,292.21197 309.16014,293.06813 308.47301,291.95633 z M 71,283.5 C 69.893768,282.16707 70.254998,281.62033 72.10189,281.83221 C 72.43293,281.87019 72.470965,280.68598 72.186413,279.20063 L 71.669045,276.5 L 70.751189,279.25 C 70.246369,280.7625 69.394276,282 68.85765,282 C 68.321024,282 68.156896,281.55515 68.492921,281.01145 C 68.847942,280.43702 68.429737,280.2816 67.494601,280.64045 C 66.186762,281.14231 66.411173,281.59475 68.692663,283.05589 C 72.209835,285.3084 72.556165,285.37506 71,283.5 z M 77,281.45819 C 77,281.16019 76.1,279.95034 75,278.76963 C 73.523828,277.18514 73,277.01275 73,278.11144 C 73,278.93015 73.54,280.14 74.2,280.8 C 75.441339,282.04134 77,282.40773 77,281.45819 z M 81.067217,279.66722 C 80.480248,279.08025 80,278.09522 80,277.47826 C 80,276.23519 88.705577,272 91.260738,272 C 92.152413,272 93.171229,271.53196 93.524772,270.95992 C 94.291938,269.71862 90.916971,270.46523 84.158533,273.03193 C 79.875334,274.6586 79.491638,275.08409 79.396212,278.31308 C 79.317904,280.96283 79.641283,281.69115 80.713429,281.27973 C 81.720433,280.8933 81.823507,280.42351 81.067217,279.66722 z M 87.25,279.33772 C 86.5625,279.06031 85.4375,279.06031 84.75,279.33772 C 84.0625,279.61513 84.625,279.84211 86,279.84211 C 87.375,279.84211 87.9375,279.61513 87.25,279.33772 z M 78,278 C 78,277.45 77.55,277 77,277 C 76.45,277 76,277.45 76,278 C 76,278.55 76.45,279 77,279 C 77.55,279 78,278.55 78,278 z M 77.5,275 C 76.708061,273.71862 76,273.71862 76,275 C 76,275.55 76.476558,276 77.059017,276 C 77.641476,276 77.839919,275.55 77.5,275 z M 96,274.53151 L 99.5,273.21518 L 96,273.24038 C 94.075,273.25424 91.375,273.86281 90,274.59276 L 87.5,275.91992 L 90,275.88388 C 91.375,275.86406 94.075,275.25549 96,274.53151 z M 81.418213,272.39301 C 82.288196,272.05917 83,271.32907 83,270.77057 C 83,270.18526 82.364593,270.28245 81.5,271 C 80.277168,272.01486 80,271.96049 80,270.70578 C 80,269.85927 80.53457,268.98848 81.187933,268.77069 C 82.030418,268.48986 81.885019,267.67393 80.687933,265.96485 L 79,263.55499 L 79,267.70417 C 79,270.81489 78.562007,271.96781 77.25,272.31067 C 75.885038,272.66738 75.977054,272.79352 77.668213,272.884 C 78.860729,272.9478 80.548229,272.72686 81.418213,272.39301 z M 88.35562,269.23361 C 88.61613,268.8121 87.774992,267.96968 86.486425,267.36157 C 84.458627,266.40461 84.162539,266.50767 84.284592,268.12796 C 84.422659,269.96085 87.40549,270.77095 88.35562,269.23361 z M 100.84636,268.42676 C 102.58086,267.56148 104,266.66512 104,266.43486 C 104,266.03858 95.968425,268.94595 95.083333,269.66262 C 93.804617,270.69801 98.170114,269.76185 100.84636,268.42676 z M 100,265.5 C 102.20163,264.65216 102.75807,264.15216 101.5,264.15216 C 100.4,264.15216 97.925,264.75869 96,265.5 C 93.79837,266.34784 93.241926,266.84784 94.5,266.84784 C 95.6,266.84784 98.075,266.24131 100,265.5 z M 108.64286,265.5 C 110.57076,263.5721 108.9784,263.5491 106.44113,265.4682 C 105.22323,266.38937 104.99234,266.94824 105.82143,266.9682 C 106.54821,266.98569 107.81786,266.325 108.64286,265.5 z M 109.68973,261.3564 C 109.19452,260.86119 104,262.74813 104,263.42323 C 104,263.68323 105.37297,263.41734 107.05105,262.83236 C 108.72912,262.24738 109.91653,261.5832 109.68973,261.3564 z M 118.21607,262.573 C 120.02223,261.78815 122.35191,260.87756 123.39313,260.54946 C 124.43435,260.22137 125.07249,259.73916 124.81123,259.4779 C 124.54997,259.21663 121.22306,260.1104 117.4181,261.46405 C 113.61315,262.81769 111.49723,263.94205 112.71607,263.96261 C 113.93491,263.98317 116.40991,263.35785 118.21607,262.573 z M 81.204149,255.25401 C 81.933389,254.37533 81.908935,254 81.122445,254 C 80.5051,254 80,253.26875 80,252.375 C 80,251.10386 80.651328,250.88027 82.991071,251.34821 C 85.064273,251.76285 85.908165,251.57106 85.741071,250.72321 C 85.592881,249.97129 87.522747,249.14073 90.75,248.56751 C 93.6375,248.05464 96,247.27246 96,246.82933 C 96,246.3862 97.8,245.7358 100,245.38401 C 103.26424,244.86204 104,244.3387 104,242.53886 C 104,239.62213 102.95948,238.70157 101.59888,240.41457 C 100.99449,241.17548 99.543284,242.08111 98.373965,242.42707 C 96.776314,242.89976 96.116033,242.55171 95.717223,241.02666 C 95.425335,239.91048 95.598003,239.25155 96.10093,239.56238 C 96.603856,239.8732 97.645143,239.49771 98.414901,238.72796 C 99.614313,237.52854 99.318934,237.34561 96.349417,237.44873 C 94.443643,237.51491 92.512434,238.17086 92.057841,238.90641 C 91.603248,239.64196 90.616764,240.02853 89.865654,239.76547 C 89.114544,239.5024 87.432764,239.68222 86.128363,240.16508 C 84.584725,240.73649 83.275505,240.64361 82.378363,239.89905 C 80.052899,237.96909 80.81644,237.30431 85.25,237.39885 C 89.344245,237.48615 96.272189,234.98664 97.516539,232.97324 C 98.392231,231.55634 95.330514,231.78256 92.20034,233.36603 C 88.128198,235.42603 80,236.09967 80,234.37716 C 80,233.61972 80.5625,232.99311 81.25,232.98469 C 82.203474,232.97301 82.189283,232.77232 81.190176,232.1387 C 80.315706,231.58412 79.983329,229.60948 80.190176,226.19774 C 80.48351,221.35945 80.627691,221.11951 82.899153,221.68957 C 84.624395,222.12256 85.088312,221.95191 84.550718,221.08206 C 83.999565,220.19028 84.682959,220.02215 87.151565,220.4422 C 91.151708,221.12286 95.153676,218.75368 93.238635,216.83864 C 92.366806,215.96681 91.718464,215.98876 90.586187,216.92847 C 89.761969,217.61251 88.666554,217.91195 88.15193,217.5939 C 87.637307,217.27584 85.173418,217.77274 82.676622,218.69812 L 78.136993,220.38063 L 78.101195,234.44031 C 78.063208,249.35973 79.19099,266.20385 79.812788,260.00401 C 80.00563,258.08122 80.631742,255.94372 81.204149,255.25401 z M 80,246.5 C 80,245.675 80.435877,245 80.968615,245 C 81.501354,245 81.678209,245.675 81.361626,246.5 C 80.624596,248.42067 80,248.42067 80,246.5 z M 86.638374,246.5 C 86.321791,245.675 86.498646,245 87.031385,245 C 87.564123,245 88,245.675 88,246.5 C 88,248.42067 87.375404,248.42067 86.638374,246.5 z M 127.66228,256.75 C 127.38487,256.0625 127.15789,256.625 127.15789,258 C 127.15789,259.375 127.38487,259.9375 127.66228,259.25 C 127.93969,258.5625 127.93969,257.4375 127.66228,256.75 z M 120.44236,258.09326 C 120.75058,257.59455 120.10214,257.42204 119.00138,257.70989 C 116.66639,258.3205 116.37123,259 118.44098,259 C 119.23352,259 120.13414,258.59197 120.44236,258.09326 z M 348,257 C 348,256.45 348.66589,256 349.47976,256 C 351.6252,256 359,252.91798 359,252.02138 C 359,251.60258 356.9621,250.68934 354.47132,249.99197 C 351.98055,249.2946 350.13513,248.53154 350.37038,248.29629 C 350.76916,247.89751 357.32119,249.41855 360.56255,250.66237 C 361.77048,251.1259 362,248.96901 362,237.15399 L 362,223.09401 L 358.25,222.0252 C 356.1875,221.43736 352.6781,220.69246 350.45134,220.36987 L 346.40268,219.78334 L 346.12187,233.03354 C 345.90625,243.20826 346.14965,246.47937 347.17054,247.12656 C 348.16933,247.75974 348.18909,247.97318 347.25,247.98469 C 346.41871,247.99487 346,249.67483 346,253 C 346,255.75 346.45,258 347,258 C 347.55,258 348,257.55 348,257 z M 125,240 C 125,229.13627 124.63266,223 123.9823,223 C 123.32146,223 123.05848,228.95995 123.2323,239.99703 C 123.37954,249.34539 123.8375,256.99539 124.25,256.99703 C 124.6625,256.99866 125,249.35 125,240 z M 105.65066,238.53203 C 105.34084,237.72464 105.51769,236.79808 106.04367,236.47301 C 107.51864,235.56143 107.17537,234 105.5,234 C 104.5,234 104,235 104,237 C 104,238.65 104.49814,240 105.10699,240 C 105.71583,240 105.96049,239.33941 105.65066,238.53203 z M 115.5,238 C 115.83992,237.45 115.19148,237 114.05902,237 C 112.92656,237 112,237.45 112,238 C 112,239.29836 114.69757,239.29836 115.5,238 z M 120,236.03138 C 120,235.49865 119.325,235.32179 118.5,235.63837 C 116.57933,236.3754 116.57933,237 118.5,237 C 119.325,237 120,236.56412 120,236.03138 z M 101.5,232 C 100.70032,230.70609 99,230.70609 99,232 C 99,232.55 99.701558,233 100.55902,233 C 101.41648,233 101.83992,232.55 101.5,232 z M 120,232 C 120,231.45 119.55,231 119,231 C 118.45,231 118,231.45 118,232 C 118,232.55 118.45,233 119,233 C 119.55,233 120,232.55 120,232 z M 91,230.5 C 91,228.57933 90.375404,228.57933 89.638374,230.5 C 89.321791,231.325 89.498646,232 90.031385,232 C 90.564123,232 91,231.325 91,230.5 z M 107.5,230 C 106.70806,228.71862 106,228.71862 106,230 C 106,230.55 106.47656,231 107.05902,231 C 107.64148,231 107.83992,230.55 107.5,230 z M 112,229.94098 C 112,229.35852 111.55,229.16008 111,229.5 C 109.71862,230.29194 109.71862,231 111,231 C 111.55,231 112,230.52344 112,229.94098 z M 92,225.5 C 93.013429,224.27889 92.963123,224 91.729434,224 C 90.895933,224 89.954956,224.675 89.638374,225.5 C 88.895019,227.43715 90.392307,227.43715 92,225.5 z M 88.1875,223.31689 C 87.465625,223.02802 86.603125,223.06354 86.270833,223.39583 C 85.938542,223.72813 86.529167,223.96447 87.583333,223.92105 C 88.748276,223.87307 88.985233,223.63611 88.1875,223.31689 z M 81,217 C 82.212959,216.21613 82.069438,216.0277 80.25,216.01531 C 79.0125,216.00689 78,216.45 78,217 C 78,218.25292 79.061241,218.25292 81,217 z M 96.5,216 C 96.160081,215.45 95.431966,215 94.881966,215 C 94.331966,215 94.160081,215.45 94.5,216 C 94.839919,216.55 95.568034,217 96.118034,217 C 96.668034,217 96.839919,216.55 96.5,216 z M 107.25,212.75809 C 109.8625,212.15222 112,211.32504 112,210.91992 C 112,210.09016 100.13968,213.48502 99.14244,214.60022 C 98.789098,214.99536 99.4,214.99039 100.5,214.58917 C 101.6,214.18795 104.6375,213.36396 107.25,212.75809 z M 92.1875,213.31689 C 91.465625,213.02802 90.603125,213.06354 90.270833,213.39583 C 89.938542,213.72813 90.529167,213.96447 91.583333,213.92105 C 92.748276,213.87307 92.985233,213.63611 92.1875,213.31689 z M 80,211.44098 C 80,210.58352 79.55,210.16008 79,210.5 C 77.706093,211.29968 77.706093,213 79,213 C 79.55,213 80,212.29844 80,211.44098 z M 99.916667,211.35932 C 100.92015,210.49394 96.35037,211.13188 95,212.04569 C 93.904542,212.787 94.309084,212.87977 96.5,212.3897 C 98.15,212.02062 99.6875,211.55695 99.916667,211.35932 z M 86.081787,209 C 87.136804,209 88,208.62794 88,208.17319 C 88,207.01784 82.119703,207.9973 81.323715,209.28523 C 80.912125,209.9512 81.315316,210.09298 82.417743,209.66994 C 83.37795,209.30147 85.026771,209 86.081787,209 z M 124.99706,207.18261 C 124.99908,206.27885 124.29355,206.08135 122.75,206.55358 C 118.40216,207.88372 117.89885,208.65496 121.42895,208.57786 C 123.67066,208.5289 124.99521,208.01096 124.99706,207.18261 z M 96,207 C 96,206.45 95.298442,206 94.440983,206 C 93.583524,206 93.160081,206.45 93.5,207 C 94.299679,208.29391 96,208.29391 96,207 z M 105,206.03138 C 105,205.49865 104.325,205.32179 103.5,205.63837 C 101.57933,206.3754 101.57933,207 103.5,207 C 104.325,207 105,206.56412 105,206.03138 z M 80,205 C 80,204.45 79.55,204 79,204 C 78.45,204 78,204.45 78,205 C 78,205.55 78.45,206 79,206 C 79.55,206 80,205.55 80,205 z M 122.1875,204.31689 C 121.46563,204.02802 120.60313,204.06354 120.27083,204.39583 C 119.93854,204.72813 120.52917,204.96447 121.58333,204.92105 C 122.74828,204.87307 122.98523,204.63611 122.1875,204.31689 z M 93.133884,200.75 C 92.809353,198.72063 92.467058,198.1792 92.222503,199.30841 C 91.850271,201.02717 92.530128,204 93.295422,204 C 93.492428,204 93.419736,202.5375 93.133884,200.75 z M 89.349337,201.53203 C 90.218542,199.26691 88.713904,199.04772 86.575035,201.12788 C 84.676382,202.97441 84.678337,203 86.718046,203 C 87.855433,203 89.039514,202.33941 89.349337,201.53203 z M 114,195.60699 C 114,195.39083 113.30163,194.94599 112.44806,194.61844 C 111.55814,194.27695 111.15674,194.44459 111.50708,195.01145 C 112.09434,195.96166 114,196.4169 114,195.60699 z M 91.5,190.02101 C 95.35,188.92908 100.525,187.51658 103,186.88212 C 105.475,186.24765 106.99553,185.54647 106.37895,185.32392 C 105.34186,184.9496 83.018037,190.72172 82.083333,191.60587 C 81.114046,192.52273 84.963679,191.87483 91.5,190.02101 z M 83.5,188.44399 C 86.148212,187.15008 86.206843,187.0365 84,187.47544 C 82.625,187.74893 80.7125,187.97884 79.75,187.98635 C 78.7875,187.99386 78,188.45 78,189 C 78,190.37795 79.944081,190.18141 83.5,188.44399 z M 91.13671,186.21224 C 90.415269,185.97176 89.349552,186.25045 88.76845,186.83155 C 88.026382,187.57362 88.416814,187.70376 90.080159,187.26879 C 91.432363,186.91518 91.885656,186.46189 91.13671,186.21224 z M 82.25,184.33772 C 81.5625,184.06031 80.4375,184.06031 79.75,184.33772 C 79.0625,184.61513 79.625,184.84211 81,184.84211 C 82.375,184.84211 82.9375,184.61513 82.25,184.33772 z M 98.730968,184.30701 C 97.758001,184.05347 96.408001,184.07014 95.730968,184.34406 C 95.053936,184.61799 95.85,184.82543 97.5,184.80505 C 99.15,184.78467 99.703936,184.56055 98.730968,184.30701 z M 115.5,183 C 116.76064,182.45828 116.94548,182.14057 116,182.14057 C 115.175,182.14057 113.6,182.52731 112.5,183 C 111.23936,183.54172 111.05452,183.85943 112,183.85943 C 112.825,183.85943 114.4,183.47269 115.5,183 z M 127.66228,176.75 C 127.38487,176.0625 127.15789,176.625 127.15789,178 C 127.15789,179.375 127.38487,179.9375 127.66228,179.25 C 127.93969,178.5625 127.93969,177.4375 127.66228,176.75 z M 124.1875,177.31689 C 123.46563,177.02802 122.60313,177.06354 122.27083,177.39583 C 121.93854,177.72813 122.52917,177.96447 123.58333,177.92105 C 124.74828,177.87307 124.98523,177.63611 124.1875,177.31689 z M 127.60417,172.27083 C 127.27188,171.93854 127.03553,172.52917 127.07895,173.58333 C 127.12693,174.74828 127.36389,174.98523 127.68311,174.1875 C 127.97198,173.46562 127.93646,172.60313 127.60417,172.27083 z M 93,173 C 93,172.45 92.55,172 92,172 C 91.45,172 91,172.45 91,173 C 91,173.55 91.45,174 92,174 C 92.55,174 93,173.55 93,173 z M 89.457295,167.9309 C 88.600055,166.54386 88,166.80249 88,168.55902 C 88,169.41648 88.45734,169.83538 89.016312,169.48992 C 89.575283,169.14446 89.773726,168.4429 89.457295,167.9309 z M 112,167 C 112,166.45 111.52344,166 110.94098,166 C 110.35852,166 110.16008,166.45 110.5,167 C 111.29194,168.28138 112,168.28138 112,167 z M 127.66228,163.75 C 127.38487,163.0625 127.15789,163.625 127.15789,165 C 127.15789,166.375 127.38487,166.9375 127.66228,166.25 C 127.93969,165.5625 127.93969,164.4375 127.66228,163.75 z M 80,165 C 80,164.45 79.55,164 79,164 C 78.45,164 78,164.45 78,165 C 78,165.55 78.45,166 79,166 C 79.55,166 80,165.55 80,165 z M 89.5,163 C 90.81874,162.43332 90.989055,162.12185 90,162.0856 C 89.175,162.05536 87.825,162.46684 87,163 C 85.172034,164.18132 86.750915,164.18132 89.5,163 z M 304.45,162.08227 C 303.9275,161.57751 301.25,160.91938 298.5,160.61974 L 293.5,160.07495 L 299,161.42526 C 302.025,162.16793 304.7025,162.82606 304.95,162.88778 C 305.1975,162.9495 304.9725,162.58702 304.45,162.08227 z M 85.916667,160.35932 C 86.145833,160.1617 83.895833,160.04486 80.916667,160.09968 C 76.770893,160.17597 76.086566,160.38137 78,160.9751 C 80.231953,161.66766 84.812693,161.31136 85.916667,160.35932 z M 95.442363,161.09326 C 95.750581,160.59455 95.102139,160.42204 94.00138,160.70989 C 91.666393,161.3205 91.371233,162 93.440983,162 C 94.233524,162 95.134145,161.59197 95.442363,161.09326 z M 104.41851,159.64825 C 104.07966,158.76521 102.96363,158.48864 101.1999,158.85064 L 98.5,159.40479 L 101.5,160.08408 C 103.15,160.45769 104.59838,160.81661 104.71862,160.88169 C 104.83885,160.94676 104.70381,160.39171 104.41851,159.64825 z M 71.74589,158.41256 C 70.646082,157.31275 63.991421,156.20486 63.477719,157.03605 C 63.196324,157.49136 64.21122,158.05209 65.733045,158.28211 C 70.384655,158.9852 72.361421,159.02809 71.74589,158.41256 z M 286.73097,158.30701 C 285.758,158.05347 284.408,158.07014 283.73097,158.34406 C 283.05394,158.61799 283.85,158.82543 285.5,158.80505 C 287.15,158.78467 287.70394,158.56055 286.73097,158.30701 z M 93.669045,155.33571 C 92.966323,154.63299 88,156.14037 88,157.05639 C 88,157.51815 89.372971,157.41734 91.051047,156.83236 C 92.729122,156.24738 93.907222,155.57389 93.669045,155.33571 z M 281.1875,157.31689 C 280.46562,157.02802 279.60312,157.06354 279.27083,157.39583 C 278.93854,157.72813 279.52917,157.96447 280.58333,157.92105 C 281.74828,157.87307 281.98523,157.63611 281.1875,157.31689 z M 61.1875,156.31689 C 60.465625,156.02802 59.603125,156.06354 59.270833,156.39583 C 58.938542,156.72813 59.529167,156.96447 60.583333,156.92105 C 61.748276,156.87307 61.985233,156.63611 61.1875,156.31689 z M 55,155 C 54.175,154.46684 52.375,154.06859 51,154.11499 L 48.5,154.19936 L 51,155 C 52.375,155.44035 54.175,155.83861 55,155.88501 C 56.333333,155.96 56.333333,155.86167 55,155 z M 124,154.59362 C 124,153.63764 123.29658,153.37119 121.80355,153.76162 C 119.70708,154.30986 119.6957,154.37068 121.55355,155.09772 C 122.6241,155.51666 123.6125,155.89106 123.75,155.92971 C 123.8875,155.96837 124,155.36713 124,154.59362 z M 269.1875,155.31689 C 268.46562,155.02802 267.60312,155.06354 267.27083,155.39583 C 266.93854,155.72813 267.52917,155.96447 268.58333,155.92105 C 269.74828,155.87307 269.98523,155.63611 269.1875,155.31689 z M 113,154 C 114.82797,152.81868 113.24909,152.81868 110.5,154 C 109.18126,154.56668 109.01094,154.87815 110,154.9144 C 110.825,154.94464 112.175,154.53316 113,154 z M 264.1875,154.31689 C 263.46562,154.02802 262.60312,154.06354 262.27083,154.39583 C 261.93854,154.72813 262.52917,154.96447 263.58333,154.92105 C 264.74828,154.87307 264.98523,154.63611 264.1875,154.31689 z M 108.75,152.31067 C 107.7875,152.05915 106.2125,152.05915 105.25,152.31067 C 104.2875,152.5622 105.075,152.768 107,152.768 C 108.925,152.768 109.7125,152.5622 108.75,152.31067 z M 119.25,152.33772 C 118.5625,152.06031 117.4375,152.06031 116.75,152.33772 C 116.0625,152.61513 116.625,152.84211 118,152.84211 C 119.375,152.84211 119.9375,152.61513 119.25,152.33772 z M 256.73097,152.30701 C 255.758,152.05347 254.408,152.07014 253.73097,152.34406 C 253.05394,152.61799 253.85,152.82543 255.5,152.80505 C 257.15,152.78467 257.70394,152.56055 256.73097,152.30701 z M 32,150 C 32,149.45 30.9875,149.03163 29.75,149.07029 C 27.603099,149.13735 27.591644,149.17995 29.5,150 C 30.6,150.47269 31.6125,150.89106 31.75,150.92971 C 31.8875,150.96837 32,150.55 32,150 z M 135.37186,148.94591 C 135.85138,148.51162 136.75138,148.34193 137.37186,148.56883 C 137.99233,148.79573 144.125,148.36064 151,147.60196 C 162.01635,146.38628 162.78785,146.18655 157.5,145.91921 C 154.2,145.75236 150.375,145.6618 149,145.71795 C 140.15417,146.07919 136.43299,146.49467 135.95659,147.17428 C 135.65772,147.60065 134.53272,148.09117 133.45659,148.26432 C 132.38047,148.43748 130.6,149.11613 129.5,149.77244 C 127.7738,150.80236 127.97916,150.88152 131,150.35063 C 132.925,150.01232 134.89233,149.3802 135.37186,148.94591 z M 121.5,149 C 120.70806,147.71862 120,147.71862 120,149 C 120,149.55 120.47656,150 121.05902,150 C 121.64148,150 121.83992,149.55 121.5,149 z M 25.75,148.31067 C 24.7875,148.05915 23.2125,148.05915 22.25,148.31067 C 21.2875,148.5622 22.075,148.768 24,148.768 C 25.925,148.768 26.7125,148.5622 25.75,148.31067 z M 198.26375,146.29607 C 197.03381,146.05871 194.78381,146.05256 193.26375,146.28242 C 191.74369,146.51227 192.75,146.70648 195.5,146.71399 C 198.25,146.72149 199.49369,146.53343 198.26375,146.29607 z M 214.73097,145.30701 C 213.758,145.05347 212.408,145.07014 211.73097,145.34406 C 211.05394,145.61799 211.85,145.82543 213.5,145.80505 C 215.15,145.78467 215.70394,145.56055 214.73097,145.30701 z M 124.1875,122.31689 C 123.46563,122.02802 122.60313,122.06354 122.27083,122.39583 C 121.93854,122.72813 122.52917,122.96447 123.58333,122.92105 C 124.74828,122.87307 124.98523,122.63611 124.1875,122.31689 z M 128.1875,121.31689 C 127.46563,121.02802 126.60313,121.06354 126.27083,121.39583 C 125.93854,121.72813 126.52917,121.96447 127.58333,121.92105 C 128.74828,121.87307 128.98523,121.63611 128.1875,121.31689 z M 177,113 C 179.03762,112.34744 178.62148,112.18092 174.75,112.09968 C 172.1375,112.04486 170,112.45 170,113 C 170,114.1573 173.38634,114.1573 177,113 z M 212,113 C 212,112.42596 209.33776,112.05607 205.75,112.13164 C 200.39314,112.24447 200.00016,112.36856 203,113 C 208.29812,114.11521 212,114.11521 212,113 z M 174.25,107.29427 C 173.0125,107.05591 170.9875,107.05591 169.75,107.29427 C 168.5125,107.53262 169.525,107.72764 172,107.72764 C 174.475,107.72764 175.4875,107.53262 174.25,107.29427 z M 195.77643,107.27311 C 193.72847,107.05823 190.12847,107.05526 187.77643,107.2665 C 185.42439,107.47775 187.1,107.65356 191.5,107.65719 C 195.9,107.66082 197.82439,107.48798 195.77643,107.27311 z M 212.25,107.33772 C 211.5625,107.06031 210.4375,107.06031 209.75,107.33772 C 209.0625,107.61513 209.625,107.84211 211,107.84211 C 212.375,107.84211 212.9375,107.61513 212.25,107.33772 z M 227.73097,107.30701 C 226.758,107.05347 225.408,107.07014 224.73097,107.34406 C 224.05394,107.61799 224.85,107.82543 226.5,107.80505 C 228.15,107.78467 228.70394,107.56055 227.73097,107.30701 z M 238.25,107.29427 C 237.0125,107.05591 234.9875,107.05591 233.75,107.29427 C 232.5125,107.53262 233.525,107.72764 236,107.72764 C 238.475,107.72764 239.4875,107.53262 238.25,107.29427 z M 268,107.22357 C 268,106.79654 266.2,106.61881 264,106.82861 C 258.84655,107.32007 258.84655,108 264,108 C 266.2,108 268,107.65061 268,107.22357 z "/>
      <path d="M 308.47301,291.95633 C 308.14793,291.43035 308.17123,290.53196 308.52477,289.95992 C 308.93612,289.29435 308.30052,289.13746 306.75959,289.5242 C 303.52525,290.33597 302.1689,288.3727 302.7517,283.72296 C 303.0964,280.97293 303.91311,279.58545 305.75533,278.62021 C 308.81228,277.01851 308.64077,276.91216 298.25,273.96609 C 293.7125,272.67958 290,271.13457 290,270.53273 C 290,269.93089 288.56717,268.89764 286.81594,268.23663 C 282.17917,266.48644 283.97223,265.71241 289.46144,267.09461 C 292.83734,267.94467 293.78964,268.54078 292.83308,269.20514 C 291.92585,269.83524 292.22515,269.92681 293.76998,269.49178 C 295.01847,269.1402 298.1894,269.56647 300.81649,270.43905 C 308.6325,273.03511 313.62796,272.70445 321.5,269.06995 C 333.38609,263.58217 334.7673,263 335.90113,263 C 336.50551,263 337,262.55 337,262 C 337,261.45 336.45855,261 335.79677,261 C 334.02638,261 314.77983,254.88683 315.2066,254.46007 C 315.78492,253.88175 330.12612,256.94587 334.2067,258.51961 C 336.24538,259.30586 338.10435,259.62309 338.33773,259.22458 C 338.57112,258.82606 338.92811,249.29582 339.13104,238.04628 L 339.5,217.59256 L 336,216.79528 C 281.67742,204.42096 185.65881,182.2303 182.75,181.37799 C 181.13501,180.90478 181,182.09657 181,196.82562 C 181,212.97322 180.66112,214.45923 177.25,213.26936 C 176.32086,212.94526 176,208.76157 176,196.97057 L 176,181.1078 L 171.25,182.46832 C 150.93045,188.28836 130.06892,194 129.13101,194 C 128.35719,194 128,190.47343 128,182.83333 C 128,176.69167 127.80228,171.86439 127.56062,172.10605 C 126.91904,172.74763 126.83935,179.95367 126.96475,225.98704 C 127.04076,253.88884 126.73758,267.58747 126.03889,267.82037 C 125.41159,268.02947 125,266.16124 125,263.10477 C 125,258.24309 124.91101,258.08012 122.75,258.98443 C 113.17137,262.99278 78.565499,274.8495 77.809244,274.38211 C 77.286914,274.05929 83.753654,271.39706 92.179776,268.46604 C 100.6059,265.53502 111.325,261.76909 116,260.0973 L 124.5,257.0577 L 124.76713,231.40774 C 125.01834,207.28569 124.92899,205.78864 123.26713,206.27591 C 122.29521,206.56088 115.875,208.47189 109,210.52259 C 97.58029,213.9289 83.105256,217.94083 82.083333,217.98286 C 79.157294,218.10321 93.450497,213.57809 119.25,206.21616 L 125,204.57539 L 125,192.2877 C 125,183.95077 124.64311,180 123.89,180 C 123.2795,180 116.867,181.62657 109.64,183.6146 C 92.390909,188.35955 78.684588,191.95498 77.75,191.97996 C 77.3375,191.99098 77,191.55 77,191 C 77,190.45 77.699372,190 78.55416,190 C 80.074867,190 84.876715,188.74202 111.75,181.30342 L 125,177.63579 L 125,165.31789 C 125,158.54305 124.81468,153 124.58818,153 C 124.36167,153 116.14917,154.9844 106.33818,157.40977 C 96.527179,159.83514 85.920347,162.34042 82.767437,162.97705 C 79.614527,163.61368 76.709758,164.6606 76.312394,165.30355 C 75.91503,165.9465 75.713341,188.72218 75.864196,215.91618 C 76.104171,259.17551 75.955832,265.20823 74.678219,264.14791 C 73.468897,263.14426 73.027389,263.48268 72.10898,266.11722 C 70.751253,270.012 70.716353,270.98359 72.005429,269 C 72.755671,267.84555 72.933614,268.11721 72.777864,270.17925 C 72.666561,271.65284 72.148345,272.77784 71.626273,272.67925 C 71.104201,272.58066 70.36432,273.625 69.982093,275 L 69.287135,277.5 L 68.53516,274.75 C 68.061071,273.01624 67.101835,272 65.939423,272 C 64.220364,272 64.187223,272.30423 65.44942,276.4982 C 66.193987,278.9722 66.428557,280.76486 65.970687,280.48188 C 65.512817,280.1989 64.809956,280.53722 64.408773,281.23369 C 64.00759,281.93016 64.033549,282.18045 64.466459,281.78988 C 64.899369,281.39932 66.659015,281.82934 68.376784,282.74549 C 70.094553,283.66163 71.8375,284.31868 72.25,284.2056 C 73.442077,283.87881 73.127783,284.72936 71.428571,286.42857 C 69.276067,288.58108 67,288.40332 67,286.08271 C 67,284.70805 65.655657,283.66942 62.25,282.41289 C 55.612026,279.9638 38.105136,273.09922 34.5,271.53191 C 24.55438,267.20814 19.607402,265.67779 19.23056,266.80832 C 18.664452,268.50664 15,268.2887 15,266.5567 C 15,265.76289 14.038891,264.44022 12.864203,263.61744 C 10.744921,262.13303 10.725514,261.76334 10.354544,215.81073 C 10.148921,190.33983 9.8244026,164.2125 9.6333922,157.75 C 9.4423819,151.2875 9.4041345,146 9.5483981,146 C 10.0447,146 50.512561,155.1194 60.838664,157.55821 C 66.524929,158.9012 72.015068,160 73.038974,160 C 74.062879,160 75.302506,160.71813 75.793699,161.59584 C 76.58704,163.01347 78.965783,162.62909 97.093389,158.15408 C 137.60507,148.1533 148.33783,146.66476 180.5,146.58636 C 193.15,146.55552 202.15,146.2248 200.5,145.85143 C 195.54267,144.72965 212.88533,146.10135 221.5,147.5124 C 230.03813,148.91092 296.91782,161.2601 305.81366,163.08073 C 308.73618,163.67885 311.35619,164.76464 311.63591,165.49359 C 311.99532,166.4302 312.92993,166.58562 314.82225,166.02348 C 316.29501,165.58597 322.9,163.64141 329.5,161.70222 C 336.1,159.76303 349.375,155.8345 359,152.97216 C 368.625,150.10982 377.12778,147.70762 377.89506,147.63395 C 378.66332,147.56018 379.37362,148.49882 379.47596,149.72304 C 379.6244,151.49886 378.84083,152.2192 375.58089,153.30377 L 371.5,154.66146 L 370.86203,163.58073 C 370.51115,168.48633 369.94825,189.92409 369.61115,211.2202 L 368.99823,249.9404 L 372.74912,249.7202 C 376.39777,249.506 376.50837,249.6007 376.80707,253.19481 C 377.07838,256.45917 376.74976,257.07804 373.98631,258.50708 C 371.53644,259.77396 371.10109,260.41688 371.9778,261.47325 C 372.78673,262.44796 372.79308,263.00985 372.00067,263.49959 C 370.50394,264.42462 367.72561,263.25299 368.48856,262.01852 C 369.35394,260.6183 367.47501,261.36191 351.5,268.74188 C 314.34734,285.90529 310,288.03502 310,289.07236 C 310,289.58256 310.45,290 311,290 C 311.55,290 312,290.40186 312,290.89301 C 312,292.21197 309.16014,293.06813 308.47301,291.95633 z M 63.38825,274.81919 C 62.642385,273.61235 61.847986,269.0665 61.71601,265.25 C 61.654197,263.4625 61.31504,262 60.962327,262 C 60.026615,262 58,266.78072 58,268.98804 C 58,270.0297 57.55,271.16008 57,271.5 C 55.515503,272.41747 55.789351,274 57.432612,274 C 58.999609,274 60.475285,277.42196 59.552305,278.91537 C 59.23507,279.42867 59.768523,280.00769 60.737757,280.20208 C 62.527058,280.56095 64.482478,276.58968 63.38825,274.81919 z M 56.429973,277.11331 C 57.092332,276.04159 54.210819,273.45585 53.332706,274.33396 C 52.992277,274.67439 53.490882,275.25114 54.440718,275.61562 C 55.809506,276.14088 55.891044,276.45369 54.833846,277.12385 C 53.924077,277.70055 53.878656,277.97424 54.690983,277.98469 C 55.346024,277.99311 56.128569,277.60099 56.429973,277.11331 z M 69,265 C 69,264.45 68.55,264 68,264 C 67.45,264 67,264.45 67,265 C 67,265.55 67.45,266 68,266 C 68.55,266 69,265.55 69,265 z M 56.604167,259.27083 C 56.271875,258.93854 56.035526,259.52917 56.078947,260.58333 C 56.126931,261.74828 56.363888,261.98523 56.683114,261.1875 C 56.971985,260.46562 56.936458,259.60312 56.604167,259.27083 z M 353.51466,255.06491 C 360.34819,252.1819 360.42231,252.11106 357.69172,251.07289 C 356.16276,250.49158 353.78568,249.73333 352.40933,249.38789 C 351.03297,249.04244 350.10739,248.55927 350.35249,248.31418 C 350.76545,247.90122 357.25884,249.39462 360.56255,250.66237 C 361.77048,251.1259 362,248.96901 362,237.15399 L 362,223.09401 L 358.25,222.0252 C 356.1875,221.43736 352.6781,220.69246 350.45134,220.36987 L 346.40268,219.78334 L 346.12187,233.03354 C 345.90625,243.20826 346.14965,246.47937 347.17054,247.12656 C 348.16933,247.75974 348.18909,247.97318 347.25,247.98469 C 346.41871,247.99487 346,249.67483 346,253 C 346,255.75 346.12548,258 346.27885,258 C 346.43221,258 349.68833,256.67921 353.51466,255.06491 z M 128,159.44098 C 128,155.28352 127.65608,152.09452 127.23573,152.35431 C 126.81539,152.6141 126.54983,155.67815 126.64562,159.16333 C 126.8568,166.8476 126.87341,167 127.5,167 C 127.775,167 128,163.59844 128,159.44098 z M 68,281.55902 C 68,281.31648 68.45,280.83992 69,280.5 C 69.55,280.16008 70,280.35852 70,280.94098 C 70,281.52344 69.55,282 69,282 C 68.45,282 68,281.80156 68,281.55902 z M 74.66864,270.75 C 75.536124,266.19271 76,266.04754 76,270.33333 C 76,272.35 75.56125,274 75.025,274 C 74.464766,274 74.31317,272.61745 74.66864,270.75 z M 128,260.56642 C 128,257.50489 128.19571,255 128.4349,255 C 128.6741,255 130.05003,255.44872 131.49254,255.99716 C 133.83537,256.88791 134.08244,257.4482 133.80764,261.24716 C 133.53232,265.05315 133.21105,265.53325 130.75,265.81642 C 128.04146,266.12807 128,266.04892 128,260.56642 z M 93.35674,230.48727 C 93.03747,229.65526 93.286685,228.35949 93.910551,227.60778 C 95.158128,226.10454 100.43966,224.61977 103.35931,224.9515 C 104.62016,225.09476 104.9697,224.75999 104.44527,223.91144 C 103.90212,223.03261 104.16725,222.8502 105.33596,223.29868 C 106.25118,223.64988 107,223.50135 107,222.96862 C 107,221.35897 111.0179,221.88307 111.66813,223.57754 C 112.57858,225.95015 110.22523,227.60207 102.64466,229.91151 C 94.459984,232.40499 94.101174,232.42723 93.35674,230.48727 z M 77.75,218.33772 C 78.4375,218.06031 79.5625,218.06031 80.25,218.33772 C 80.9375,218.61513 80.375,218.84211 79,218.84211 C 77.625,218.84211 77.0625,218.61513 77.75,218.33772 z M 93.335833,201.43278 C 92.445918,199.1137 94.356708,197.76299 99.194444,197.29141 C 101.5625,197.06057 104.49667,196.22557 105.71482,195.43585 C 108.32645,193.74274 110.62707,193.58756 111.52707,195.0438 C 112.64388,196.85084 110.07961,198.78951 103.74156,200.9299 C 96.400237,203.4091 94.136205,203.51852 93.335833,201.43278 z M 93,173.10699 C 93,171.03508 94.852806,170 98.561551,170 C 99.880438,170 102.76772,169.2765 104.97773,168.39223 C 109.85172,166.44205 112.56012,167.08489 111.08471,169.84172 C 110.03633,171.80064 100.48446,175 95.684396,175 C 93.717239,175 93,174.49421 93,173.10699 z M 356.32177,142.67392 C 352.64058,141.31422 350.8561,139.8881 353.79885,140.65765 C 354.89703,140.94483 356.62904,140.74193 357.64777,140.20676 C 359.44396,139.26317 371.68658,140.35324 372.89796,141.56463 C 375.22279,143.88946 362.00707,144.77387 356.32177,142.67392 z M 344.002,137.75 C 343.99912,136.67057 348.23081,136.85469 350,138.01097 C 351.09776,138.72843 350.49493,138.92544 347.752,138.74566 C 345.69061,138.61055 344.00311,138.1625 344.002,137.75 z M 337.5,137 C 337.13845,136.415 338.17595,136 340,136 C 341.82405,136 342.86155,136.415 342.5,137 C 341.70032,138.29391 338.29968,138.29391 337.5,137 z M 287.69702,135.34716 C 288.21008,134.01015 287.21664,133.84472 280.49605,134.14809 L 272.69991,134.5 L 271.59995,130.00904 C 270.50187,125.52569 270.49084,125.51676 265.09711,124.74526 C 259.58628,123.95701 257.48246,124.44407 259.9121,125.94568 C 260.87547,126.54107 260.34144,126.98573 258.06163,127.48646 C 256.29908,127.87358 254.58917,127.9225 254.26183,127.59516 C 253.93449,127.26782 254.49167,127 255.5,127 C 256.50833,127 257.02662,126.69329 256.65175,126.31842 C 255.59472,125.26138 244.62328,126.013 243.5,127.21941 C 242.81454,127.95559 242.89033,128.07319 243.74094,127.59328 C 245.28011,126.72491 256,129.12561 256,130.33868 C 256,130.82482 254.3125,130.89936 252.25,130.50431 C 250.1875,130.10926 240.625,129.65064 231,129.48516 C 220.49336,129.30451 210.41167,128.56895 205.77185,127.6445 C 199.46382,126.38767 195.80497,126.28602 185.86083,127.09134 C 177.49635,127.76873 173.35232,127.75232 172.63898,127.03898 C 172.06754,126.46754 170.6775,126.03163 169.55,126.07029 C 167.52237,126.1398 167.52183,126.14946 169.5,126.95515 C 171.00343,127.56748 170.50687,127.76037 167.5,127.73206 C 165.3,127.71135 159.45473,128.02092 154.51052,128.42001 C 144.47047,129.23043 143.46173,128.0973 153.23403,126.98613 L 159.5,126.27365 L 153.5519,126.13682 C 150.28044,126.06157 143.9598,125.47313 139.50603,124.82918 C 133.66598,123.9848 129.6088,123.9487 124.95413,124.69971 C 118.60039,125.72485 115.57512,125.49649 116.46364,124.05883 C 116.71233,123.65645 118.39724,123.24309 120.2079,123.14025 C 122.01855,123.03741 126.2,122.36893 129.5,121.65474 L 135.5,120.3562 L 132,118.16585 C 130.075,116.96116 126.80406,115.5114 124.73125,114.94416 C 122.65844,114.37692 120.41269,113.03243 119.7407,111.95641 C 119.06871,110.88038 117.95215,110 117.25945,110 C 116.56675,110 116,109.58015 116,109.06699 C 116,108.49858 146.08966,108.09545 193,108.03538 C 255.00819,107.95598 269.99564,108.18631 269.97759,109.21839 C 269.96527,109.92328 268.63331,113.2 267.01767,116.5 L 264.08016,122.5 L 266.29008,122.7916 C 267.50554,122.95198 269.4,123.48722 270.5,123.98101 C 271.6,124.47481 277,125.59606 282.5,126.47267 C 288,127.34929 294.75,128.51345 297.5,129.05971 C 302.57797,130.0684 315.40663,132.19355 329,134.2779 C 335.26523,135.23858 336.00609,135.53784 333.5,136.09564 C 331.85,136.46289 328.7,136.75275 326.5,136.73978 L 322.5,136.71619 L 326.5,136 C 330.49218,135.28521 330.48952,135.28353 325.14308,135.14191 C 322.19678,135.06386 316.67113,134.24815 312.86387,133.32921 C 307.23853,131.97146 305.71285,131.89884 304.72079,132.94161 C 303.74217,133.97024 303.89675,134.10765 305.5,133.63428 C 306.6,133.3095 309.525,133.71265 312,134.53017 L 316.5,136.01657 L 310.56507,135.41322 C 307.30085,135.08138 303.55906,134.40265 302.24997,133.90494 C 300.94088,133.40722 297.43822,133 294.46629,133 C 290.30005,133 289.18323,133.31392 289.58886,134.37096 C 289.8782,135.12498 289.437,136.00207 288.6084,136.32003 C 287.54944,136.72639 287.27868,136.43735 287.69702,135.34716 z M 177,113 C 179.03762,112.34744 178.62148,112.18092 174.75,112.09968 C 172.1375,112.04486 170,112.45 170,113 C 170,114.1573 173.38634,114.1573 177,113 z M 212,113 C 212,112.42596 209.33776,112.05607 205.75,112.13164 C 200.39314,112.24447 200.00016,112.36856 203,113 C 208.29812,114.11521 212,114.11521 212,113 z M 76.458881,134.93347 C 75.458444,133.31473 76.316167,132.92426 82.14472,132.34505 C 88.196299,131.74369 94.46115,133.46407 91.966116,135.0421 C 89.932608,136.32823 77.266051,136.2395 76.458881,134.93347 z M 99.75,128.33772 C 100.4375,128.06031 101.5625,128.06031 102.25,128.33772 C 102.9375,128.61513 102.375,128.84211 101,128.84211 C 99.625,128.84211 99.0625,128.61513 99.75,128.33772 z M 104,128 C 104,127.45 105.0125,127.00689 106.25,127.01531 C 108.06944,127.0277 108.21296,127.21613 107,128 C 105.06124,129.25292 104,129.25292 104,128 z M 109.61135,127.18018 C 109.28633,126.65428 110.36582,126.02654 112.0102,125.78519 C 113.65459,125.54385 115,125.71845 115,126.17319 C 115,126.62794 114.5868,127 114.08179,127 C 113.57677,127 112.49729,127.25568 111.68294,127.56817 C 110.86859,127.88067 109.93638,127.70607 109.61135,127.18018 z M 120.55494,105.34777 C 121.07472,105.19253 132.075,103.25096 145,101.03318 C 167.62109,97.151663 169.32901,97.000836 190.66577,97.000426 C 210.84367,97.000038 214.96904,97.315718 236.66577,100.52042 C 249.7746,102.45664 262.75,104.43961 265.5,104.92702 C 268.59039,105.47475 241.68593,105.77822 195.05494,105.72162 C 153.56015,105.67125 120.03515,105.50302 120.55494,105.34777 z " style="fill:#cd946c" id="path2286"/>
      <path d="M 308.47301,291.95633 C 308.14793,291.43035 308.17123,290.53196 308.52477,289.95992 C 308.93612,289.29435 308.30052,289.13746 306.75959,289.5242 C 303.52525,290.33597 302.1689,288.3727 302.7517,283.72296 C 303.0964,280.97293 303.91311,279.58545 305.75533,278.62021 C 308.81228,277.01851 308.64077,276.91216 298.25,273.96609 C 293.7125,272.67958 290,271.26091 290,270.81349 C 290,269.73014 289.59338,269.65721 299.40324,272.5 C 310.0176,275.57592 314.31558,275.68442 317.05439,272.94561 C 318.18431,271.81569 320.32181,270.73695 321.80439,270.5484 C 323.28698,270.35984 327.06853,269.02981 330.20784,267.59276 C 338.3197,263.87949 338.69384,262.69793 339.41993,238.5 C 339.75,227.5 339.67804,218.05 339.26003,217.5 C 338.84201,216.95 337.3806,216.3411 336.01244,216.1469 C 333.63931,215.81004 316.3387,211.943 278,203.17993 C 268.375,200.97995 254.2,197.75225 246.5,196.00728 C 238.8,194.2623 226.2,191.3132 218.5,189.45371 C 210.8,187.59423 200,185.14945 194.5,184.02087 C 189,182.89229 183.7125,181.72058 182.75,181.41707 C 181.13338,180.90728 181,182.08168 181,196.82562 C 181,212.97322 180.66112,214.45923 177.25,213.26936 C 176.32015,212.94501 176,208.72939 176,196.80968 C 176,183.71521 175.75154,180.88137 174.64084,181.30758 C 172.63561,182.07706 129.44953,194 128.66763,194 C 128.30043,194 128,188.825 128,182.5 C 128,175.68108 127.60234,171 127.02307,171 C 126.43505,171 125.92765,178.06597 125.74848,188.75 C 125.58464,198.51922 125.44098,194.1354 125.42895,179 C 125.41693,163.875 125.55869,155.2125 125.74399,159.75 C 126.18495,170.54842 128,170.47613 128,159.66015 L 128,151.32031 L 134.75,150.14627 C 147.35899,147.95316 160.45691,147.03464 179,147.04313 C 207.67472,147.05626 207.58774,147.04396 288.40715,162.5077 L 312.31431,167.08203 L 344.59329,157.54101 C 362.34674,152.29346 377.47959,148 378.22186,148 C 378.96412,148 379.57143,148.89464 379.57143,149.9881 C 379.57143,151.42201 378.44648,152.35045 375.53571,153.31883 L 371.5,154.66146 L 370.86203,163.58073 C 370.51115,168.48633 369.94825,189.92409 369.61115,211.2202 L 368.99823,249.9404 L 372.74912,249.7202 C 376.39777,249.506 376.50837,249.6007 376.80707,253.19481 C 377.07838,256.45917 376.74976,257.07804 373.98631,258.50708 C 371.53644,259.77396 371.10109,260.41688 371.9778,261.47325 C 372.78673,262.44796 372.79308,263.00985 372.00067,263.49959 C 370.50394,264.42462 367.72561,263.25299 368.48856,262.01852 C 369.35394,260.6183 367.47501,261.36191 351.5,268.74188 C 314.34734,285.90529 310,288.03502 310,289.07236 C 310,289.58256 310.45,290 311,290 C 311.55,290 312,290.40186 312,290.89301 C 312,292.21197 309.16014,293.06813 308.47301,291.95633 z M 350.90369,257.59452 C 351.23166,257.6465 352.94805,257.084 354.71788,256.34452 C 356.48772,255.60503 358.40022,255 358.96788,255 C 360.94209,255 359.98555,251.37969 357.75,250.39054 C 355.28488,249.29981 356.21147,249.32196 359.77792,250.43902 L 362.05584,251.1525 L 361.77792,236.90478 L 361.5,222.65707 L 354.30592,220.46161 C 349.39285,218.96225 346.9915,218.62029 346.73229,219.38307 C 346.52353,219.99738 346.23175,226.29772 346.08389,233.38383 C 345.87688,243.30451 346.12381,246.46335 347.15753,247.11852 C 348.1561,247.75141 348.17979,247.9733 347.25,247.98469 C 346.40816,247.995 346,249.7415 346,253.33333 C 346,259.32779 346.63451,260.54822 348.81169,258.74132 C 349.63432,258.0586 350.57573,257.54253 350.90369,257.59452 z M 347.73932,197.70841 C 347.54464,194.29379 347.38679,197.35 347.38854,204.5 C 347.39029,211.65 347.54957,214.44379 347.7425,210.70841 C 347.93543,206.97304 347.93399,201.12304 347.73932,197.70841 z M 339,209.55902 C 339,208.76648 338.55,207.83992 338,207.5 C 337.45,207.16008 337,207.80852 337,208.94098 C 337,210.07344 337.45,211 338,211 C 338.55,211 339,210.35156 339,209.55902 z M 335.43524,209.10478 C 335.73954,208.61242 335.27929,207.93742 334.41247,207.60478 C 331.74895,206.5827 330.85874,206.92925 332.21057,208.46196 C 333.71325,210.16572 334.66259,210.35496 335.43524,209.10478 z M 67,286 C 67,284.9 66.55,284 66,284 C 65.45,284 65,283.55 65,283 C 65,281.43242 66.495286,281.81515 69.449436,284.13889 C 71.538044,285.78179 71.859179,286.47391 70.834294,287.12357 C 68.574191,288.55624 67,288.09495 67,286 z M 308.27083,273.39583 C 308.60312,273.06354 309.46562,273.02802 310.1875,273.31689 C 310.98523,273.63611 310.74828,273.87307 309.58333,273.92105 C 308.52917,273.96447 307.93854,273.72812 308.27083,273.39583 z M 14.323256,265.44806 C 13.22898,263.08948 13.299062,262.95931 15.323256,263.59064 C 18.901857,264.7068 20.346057,268.006 17.25,267.9922 C 16.2875,267.98791 14.970465,266.84305 14.323256,265.44806 z M 128.83672,262.085 C 128.29605,256.41562 128.97447,255.05227 131.80802,256.11382 C 133.7999,256.86004 134.07385,257.56212 133.80802,261.23924 C 133.55695,264.71228 133.10441,265.55641 131.36029,265.8051 C 129.52757,266.06642 129.16551,265.53269 128.83672,262.085 z M 125.20458,246.7829 C 125.04211,240.61901 125.11959,235.78626 125.37677,236.04344 C 126.17006,236.83673 126.98092,258.00032 126.21782,257.99498 C 125.82302,257.99222 125.36706,252.94678 125.20458,246.7829 z M 125.37817,221 C 125.37817,214.675 125.54054,212.0875 125.73899,215.25 C 125.93744,218.4125 125.93744,223.5875 125.73899,226.75 C 125.54054,229.9125 125.37817,227.325 125.37817,221 z M 94.188312,229.26069 C 94.426974,228.02142 95.903532,227.32394 99.324333,226.83462 C 101.96492,226.4569 105.25853,225.4054 106.64348,224.49794 C 109.65074,222.52751 112.89715,223.21408 111.05699,225.43133 C 109.97756,226.73197 97.687326,231 95.021439,231 C 94.378991,231 94.004084,230.21731 94.188312,229.26069 z M 93.542705,201.0691 C 92.664075,199.64745 94.89954,198.67888 100.95639,197.85694 C 103.98528,197.44592 106.62168,196.63495 106.81506,196.05481 C 107.25544,194.73369 111,194.65317 111,195.96482 C 111,197.31309 107.47485,199.05354 101.54613,200.63242 C 95.534959,202.23326 94.303717,202.30044 93.542705,201.0691 z M 93.52514,174.04068 C 92.461381,172.31948 93.94505,171 96.944182,171 C 98.498564,171 102.07703,170.25502 104.89632,169.34449 C 109.87118,167.73779 111.80439,167.88945 110.62726,169.79408 C 110.31211,170.30401 107.22955,171.48931 103.77713,172.42809 C 100.32471,173.36687 96.750371,174.34789 95.834157,174.60815 C 94.917943,174.86841 93.878886,174.61305 93.52514,174.04068 z M 360.75,143.27153 C 354.36794,142.60395 356.62112,141 363.94098,141 C 370.6256,141 373.6944,142.13582 370.41247,143.39522 C 368.82465,144.00452 367.60848,143.98895 360.75,143.27153 z M 78.693853,135.36052 C 77.196708,133.86337 79.503221,133 85,133 C 91.064131,133 93.688545,134.31402 89.738753,135.37266 C 86.757266,136.17176 79.497116,136.16378 78.693853,135.36052 z M 127.91204,122.48515 C 134.73867,121.1234 140.44201,119.89132 140.58614,119.7472 C 140.73027,119.60307 136.16894,117.93075 130.44987,116.03092 C 121.77934,113.15066 117.79057,110.81357 119.22646,109.45492 C 119.91403,108.80434 237.34442,108.26773 252.11761,108.84766 L 268.73522,109.5 L 267.89984,111.75 C 267.38795,113.1287 266.23006,114 264.90978,114 C 263.22754,114 262.99775,114.29236 263.86174,115.33341 C 265.25576,117.0131 261.10064,120.94112 257.74239,121.11831 C 254.15724,121.30748 260.66272,122.74006 265.75,122.88169 C 268.0875,122.94676 270,123.48575 270,124.07946 C 270,124.78063 268.86107,124.90267 266.75,124.4277 C 263.13361,123.61405 132.25789,123.62921 122,124.44447 C 116.85649,124.85325 118.09028,124.44436 127.91204,122.48515 z M 177.5,113.05737 C 181.45723,112.23884 181.43852,112.22877 175.75,112.115 C 172.50667,112.05013 170,112.43594 170,113 C 170,114.1772 172.01167,114.19259 177.5,113.05737 z M 212,113 C 212,112.41808 209.17794,112.05933 205.25,112.14191 C 199.25569,112.26792 198.94782,112.36399 202.5,113 C 208.64563,114.10036 212,114.10036 212,113 z " style="fill:#70909e" id="path2284"/>
      <path d="M 308,291.55902 C 308,290.50354 309.91911,290.06011 310.48992,290.98369 C 310.83538,291.54266 310.41648,292 309.55902,292 C 308.70156,292 308,291.80156 308,291.55902 z M 66.344085,284.4922 C 65.708332,283.12149 65.495704,282 65.871579,282 C 67.095829,282 71,285.08829 71,286.0567 C 71,288.05587 67.442517,286.86046 66.344085,284.4922 z M 300.5,274.35745 C 290.5555,271.1892 288.10366,269.28882 297.56875,272.08549 C 301.38094,273.21189 306.17821,274.38645 308.22935,274.69564 C 310.2805,275.00483 311.71644,275.64979 311.42034,276.1289 C 310.63952,277.39229 309.38909,277.18945 300.5,274.35745 z M 308.27083,273.39583 C 308.60312,273.06354 309.46562,273.02802 310.1875,273.31689 C 310.98523,273.63611 310.74828,273.87307 309.58333,273.92105 C 308.52917,273.96447 307.93854,273.72812 308.27083,273.39583 z M 318,272 C 318,270.73559 320.04347,270.73559 322,272 C 323.16887,272.75538 322.89294,272.97275 320.75,272.98469 C 319.2375,272.99311 318,272.55 318,272 z M 15,266.08333 C 15,265.02917 14.4375,263.90832 13.75,263.59256 C 13.0625,263.27681 13.625,263.29996 15,263.64401 C 17.6737,264.31303 19.179487,265.90057 18.375,267.20225 C 17.408783,268.76563 15,267.96704 15,266.08333 z M 128.83449,262.06164 C 128.41115,257.62255 128.74544,256 130.08333,256 C 130.5875,256 131,258.25 131,261 C 131,266.9223 129.37404,267.71943 128.83449,262.06164 z M 337,262.39421 C 337,261.6274 337.45,261 338,261 C 338.55,261 339,259.2 339,257 C 339,254.11111 339.41667,253 340.5,253 C 341.64295,253 341.99983,254.24969 341.99929,258.25 C 341.99864,263.14427 341.82924,263.50977 339.49929,263.64421 C 337.95969,263.73305 337,263.25307 337,262.39421 z M 369,262.55902 C 369,261.50354 370.91911,261.06011 371.48992,261.98369 C 371.83538,262.54266 371.41648,263 370.55902,263 C 369.70156,263 369,262.80156 369,262.55902 z M 125.20458,246.7829 C 125.04211,240.61901 125.11959,235.78626 125.37677,236.04344 C 126.17006,236.83673 126.98092,258.00032 126.21782,257.99498 C 125.82302,257.99222 125.36706,252.94678 125.20458,246.7829 z M 362.45842,252.93272 C 362.09563,252.34572 362.1215,245.41022 362.51591,237.5205 L 363.23301,223.17555 L 355.4894,220.83777 C 351.23042,219.552 347.80299,218.1625 347.8729,217.75 C 347.9428,217.3375 348,204.61386 348,189.47525 L 348,161.9505 L 350.75,160.89316 C 355.70021,158.98987 365.88322,156.54988 366.46175,157.12842 C 366.77295,157.43962 366.52082,168.22553 365.90146,181.09712 C 365.2821,193.9687 364.85093,215.6375 364.94329,229.25 C 365.10083,252.46707 364.67557,256.52014 362.45842,252.93272 z M 125.37817,221 C 125.37817,214.675 125.54054,212.0875 125.73899,215.25 C 125.93744,218.4125 125.93744,223.5875 125.73899,226.75 C 125.54054,229.9125 125.37817,227.325 125.37817,221 z M 94,229.55902 C 94,228.76648 94.45,227.83992 95,227.5 C 95.55,227.16008 96,227.54602 96,228.35765 C 96,229.16928 96.5625,230.06031 97.25,230.33772 C 97.9375,230.61513 97.4875,230.87763 96.25,230.92105 C 94.921098,230.96768 94,230.41009 94,229.55902 z M 108.27083,223.39583 C 108.60313,223.06354 109.46563,223.02802 110.1875,223.31689 C 110.98523,223.63611 110.74828,223.87307 109.58333,223.92105 C 108.52917,223.96447 107.93854,223.72813 108.27083,223.39583 z M 339.6409,217.30756 C 339.26006,216.92672 337.94756,216.47383 336.72423,216.30114 C 334.32721,215.96275 305.1053,209.46873 288,205.4731 C 282.225,204.12411 264.675,200.07147 249,196.46723 C 233.325,192.86299 216,188.83594 210.5,187.51823 C 205,186.20052 197.35,184.46214 193.5,183.65517 C 189.65,182.8482 185.27416,181.8748 183.77591,181.49207 L 181.05182,180.79619 L 180.77591,196.63543 C 180.53448,210.49513 180.29152,212.51469 178.83186,212.79489 C 177.33508,213.08222 177.15238,211.49693 177.05332,197.36236 C 176.99261,188.69834 176.77649,181.44315 176.57306,181.23973 C 176.36963,181.0363 165.55737,183.82414 152.54581,187.43493 C 139.53425,191.04572 128.68854,194 128.44422,194 C 128.1999,194 128,184.325 128,172.5 C 128,152.34611 128.11438,151 129.82681,151 C 131.28777,151 131.56544,151.60079 131.21331,154 C 130.72395,157.33424 132.84659,158.30265 133.67774,155.12434 C 133.99513,153.91063 135.63845,152.89426 138.33412,152.24443 L 142.5,151.24018 L 137.5,151.01964 C 132.57619,150.80246 132.55334,150.78667 136,149.98329 C 148.02381,147.18069 187.42033,146.07049 207.04961,147.98111 C 216.03929,148.85613 231.29714,151.58044 288.39928,162.50621 L 312.29856,167.07903 L 322.89928,163.96913 C 328.72968,162.25868 343.31399,157.93723 355.30886,154.3659 C 367.30374,150.79457 377.58341,148.0278 378.15258,148.21753 C 378.72175,148.40725 374.98276,149.81336 369.84372,151.34222 C 358.19501,154.8077 337.65651,160.83662 333,162.15741 C 331.075,162.70343 325.29396,164.4786 320.15325,166.10225 C 313.55224,168.18711 309.80674,168.86677 307.40325,168.41587 C 305.19086,168.00082 304,168.16628 304,168.88871 C 304,169.49992 304.675,170 305.5,170 C 306.325,170 307,170.72607 307,171.6135 C 307,173.71822 308.87543,173.37692 326.5,168.06481 C 334.2,165.744 341.2875,163.62467 342.25,163.35519 C 343.85049,162.90708 343.98926,163.87483 343.87434,174.68261 C 343.716,189.57354 342.41016,217.1668 342.17536,210.58333 C 341.9374,203.91152 340.69644,205.56345 340.75082,212.47963 C 340.79627,218.25924 340.75819,218.42486 339.6409,217.30756 z M 339,209.55902 C 339,208.76648 338.55,207.83992 338,207.5 C 337.45,207.16008 337,207.80852 337,208.94098 C 337,210.07344 337.45,211 338,211 C 338.55,211 339,210.35156 339,209.55902 z M 335.43524,209.10478 C 335.73954,208.61242 335.27929,207.93742 334.41247,207.60478 C 331.74895,206.5827 330.85874,206.92925 332.21057,208.46196 C 333.71325,210.16572 334.66259,210.35496 335.43524,209.10478 z M 125.43869,179 C 125.43869,163.875 125.57768,157.6875 125.74757,165.25 C 125.91745,172.8125 125.91745,185.1875 125.74757,192.75 C 125.57768,200.3125 125.43869,194.125 125.43869,179 z M 93.531009,201.05017 C 93.208145,200.52777 93.827004,199.62777 94.90625,199.05017 C 97.382232,197.72507 99.006664,197.69802 97,199.01531 C 95.666667,199.89059 95.666667,200.10941 97,200.98469 C 98.224463,201.7885 98.097535,201.97219 96.309017,201.98469 C 95.103976,201.99311 93.853873,201.57258 93.531009,201.05017 z M 93.5,174 C 92.770798,172.82013 93.716667,171 95.059017,171 C 95.576558,171 96,171.9 96,173 C 96,175.10908 94.545118,175.69104 93.5,174 z M 127.91204,122.48515 C 134.73867,121.1234 140.44201,119.89132 140.58614,119.7472 C 140.73027,119.60307 136.1148,117.91349 130.32955,115.99257 L 119.81091,112.5 L 144.1055,112.23177 C 164.07739,112.01126 168.53929,112.21227 169.18242,113.36149 C 169.84802,114.55085 170.89994,114.55881 176.23238,113.41485 C 186.04497,111.30976 200.69699,111.83019 210.25,114.62314 C 211.37952,114.95337 212,114.58983 212,113.59782 C 212,112.25848 215.60025,112.0248 240.00069,111.78043 C 257.82133,111.60195 267.88329,111.85354 267.67656,112.47242 C 267.4979,113.00725 266.26462,113.70146 264.93594,114.01512 C 263.14889,114.43699 262.87037,114.80185 263.86577,115.41704 C 265.68598,116.54199 260.98745,120.95357 257.79364,121.11831 C 254.14211,121.30667 260.60194,122.73837 265.75,122.88169 C 268.0875,122.94676 270,123.48575 270,124.07946 C 270,124.78063 268.86107,124.90267 266.75,124.4277 C 263.13361,123.61405 132.25789,123.62921 122,124.44447 C 116.85649,124.85325 118.09028,124.44436 127.91204,122.48515 z M 118.99989,109.75 C 118.99995,109.3375 130.3625,108.95549 144.25,108.90108 C 158.1375,108.84668 183.675,108.64969 201,108.46333 C 218.325,108.27697 240.825,108.47274 251,108.89838 C 264.82206,109.47657 250.47213,109.77691 194.24989,110.08613 C 152.86232,110.31376 118.99982,110.1625 118.99989,109.75 z " style="fill:#986539" id="path2282"/>
      <path d="M 308,291.55902 C 308,290.50354 309.91911,290.06011 310.48992,290.98369 C 310.83538,291.54266 310.41648,292 309.55902,292 C 308.70156,292 308,291.80156 308,291.55902 z M 67.361626,285.5 C 67.678209,284.675 67.426354,284 66.801949,284 C 66.177544,284 65.928126,283.73854 66.247687,283.41898 C 67.030611,282.63606 71,284.82125 71,286.03518 C 71,286.56583 70.051855,287 68.893011,287 C 67.430975,287 66.962216,286.54085 67.361626,285.5 z M 301.5,274.51637 C 297.65,273.24643 294.95143,272.16073 295.50318,272.10369 C 296.79398,271.97027 310.09933,275.766 310.80123,276.4679 C 311.84766,277.51432 308.38827,276.7885 301.5,274.51637 z M 319.47301,272.04367 C 319.79808,271.51769 320.72464,271.34084 321.53203,271.65066 C 323.59914,272.44389 323.35555,273 320.94098,273 C 319.80852,273 319.14793,272.56965 319.47301,272.04367 z M 15,265.96482 C 15,264.23014 15.299449,264.08989 17.028008,265.01499 C 19.191406,266.1728 18.832074,268 16.440983,268 C 15.648442,268 15,267.08417 15,265.96482 z M 129.66667,265.33333 C 128.6018,264.26847 128.8971,256 130,256 C 130.55,256 131,258.25 131,261 C 131,266.06993 130.85959,266.52626 129.66667,265.33333 z M 337,262.95323 C 337,262.49387 337.41084,261.86412 337.91299,261.55378 C 338.41513,261.24344 339.12968,259.19188 339.50089,256.99476 C 340.46505,251.28793 342.00013,252.05918 341.99929,258.25 C 341.99864,263.14427 341.82924,263.50977 339.49929,263.64421 C 338.12468,263.72353 337,263.41259 337,262.95323 z M 369,262.55902 C 369,261.50354 370.91911,261.06011 371.48992,261.98369 C 371.83538,262.54266 371.41648,263 370.55902,263 C 369.70156,263 369,262.80156 369,262.55902 z M 362.83562,253.25 C 362.74521,252.8375 362.51627,243.275 362.32688,232 C 361.74857,197.57221 361.52891,192.00044 360.75,192.00022 C 360.3375,192.0001 360,191.12656 360,190.05902 C 360,188.99148 359.5108,187.81569 358.91288,187.44616 C 358.31497,187.07663 358.04024,185.95413 358.30237,184.95172 C 358.7542,183.22392 357.42277,182.0905 354.15837,181.42399 C 351.76441,180.93521 351.60567,180 353.91667,180 C 357.1555,180 355.97345,177.71064 352.17165,176.6203 C 350.23915,176.06606 349.03084,175.08348 349.07895,174.10534 C 349.12542,173.1603 349.35766,172.99104 349.64356,173.69382 C 349.91067,174.35043 350.77514,174.63978 351.56461,174.33683 C 352.35407,174.03389 353,174.28417 353,174.89301 C 353,175.50186 353.66969,176 354.48821,176 C 356.65687,176 355.92313,171.75696 353.5,170.28544 C 350.75013,168.61549 350.01491,168.71062 349.90981,170.75 C 349.86021,171.7125 349.3791,170.96709 348.84067,169.09353 C 347.01348,162.73542 348.03643,161.54321 357.50152,158.99959 C 362.19696,157.73776 366.26118,156.92785 366.53312,157.19979 C 366.80507,157.47174 366.52082,168.22553 365.90146,181.09712 C 365.2821,193.9687 364.85093,215.6375 364.94329,229.25 C 365.05735,246.05872 364.77253,254 364.05562,254 C 363.47503,254 362.92603,253.6625 362.83562,253.25 z M 360.36383,174.50574 C 360.04846,173.6839 359.38758,173.26046 358.89522,173.56476 C 357.48329,174.43738 357.85123,176 359.46862,176 C 360.3607,176 360.71213,175.4134 360.36383,174.50574 z M 94,229 C 94,228.45 94.45,228 95,228 C 95.55,228 96,228.45 96,229 C 96,229.55 95.55,230 95,230 C 94.45,230 94,229.55 94,229 z M 340.232,212 C 340.232,210.075 340.4378,209.2875 340.68933,210.25 C 340.94085,211.2125 340.94085,212.7875 340.68933,213.75 C 340.4378,214.7125 340.232,213.925 340.232,212 z M 342.16004,210.5 C 342.02782,207.03269 341.6887,205.94365 341.05374,206.94729 C 340.47891,207.85588 340.24042,203.76157 340.413,195.94729 C 340.64132,185.60862 339.72172,169.32194 339.163,173.80902 C 339.07335,174.52898 338.59061,174.86502 338.09024,174.55577 C 336.55236,173.60531 334,175.11513 334,176.97532 C 334,179.11427 328.09306,180.15366 320.82755,179.29317 C 317.79388,178.93388 315.50894,179.16265 314.60043,179.91665 C 313.47299,180.85234 311.16455,180.57539 303.83266,178.6248 C 298.6997,177.25921 291.575,175.85428 288,175.50272 C 284.425,175.15117 278.95944,174.24058 275.85431,173.47918 C 265.59608,170.96381 244.56844,167.94677 240.5,168.40655 C 233.03509,169.25019 227.50174,170.29749 227,170.96172 C 226.725,171.32578 223.8,172.20842 220.5,172.92314 C 217.2,173.63787 214.05,174.56216 213.5,174.97713 C 212.53417,175.70583 210.42286,176.2826 203,177.84554 C 200.56073,178.35915 199.54209,179.10036 199.63889,180.29125 C 199.72978,181.40951 199.03865,182.00529 197.63889,182.01531 C 195.89138,182.02782 195.77448,182.20801 197,183 C 198.33333,183.86167 198.33333,183.96712 197,183.94907 C 196.175,183.9379 192.8,183.27682 189.5,182.48 C 186.2,181.68318 182.94893,181.02421 182.27539,181.01562 C 181.37197,181.0041 180.97856,185.1275 180.77539,196.73733 C 180.53452,210.50212 180.29091,212.51481 178.83186,212.79489 C 177.33508,213.08222 177.15238,211.49693 177.05332,197.36236 C 176.99261,188.69834 176.7412,181.40787 176.49465,181.16131 C 176.15471,180.82137 134.88304,191.79753 129.5,193.65949 C 128.85903,193.8812 128.40204,186.28519 128.22715,172.50269 C 127.9689,152.1509 128.0533,151 129.80395,151 C 131.29031,151 131.56713,151.58925 131.21331,154 C 130.72301,157.34061 132.84735,158.29975 133.68046,155.11392 C 134.01489,153.83506 135.514,152.97296 138.33684,152.43615 L 142.5,151.64446 L 138,151.05475 C 133.78306,150.50213 134.08265,150.38594 142.76269,149.20752 C 157.35423,147.22654 184.90631,146.59795 200.28522,147.89518 C 217.54794,149.3513 223.19266,150.31409 286.32008,162.56969 C 298.87113,165.00636 310.17828,167 311.44709,167 C 312.7159,167 317.97187,165.71453 323.12701,164.1434 C 328.28216,162.57227 333.85,161.00923 335.5,160.66998 C 340.80858,159.5785 335.27508,161.61339 322.5,165.45058 C 313.95061,168.01852 309.56546,168.86735 307.25,168.40248 C 305.1226,167.97538 304,168.13859 304,168.875 C 304,169.49375 304.62252,170 305.38337,170 C 306.14422,170 306.9973,170.88166 307.27909,171.95924 C 307.78518,173.89452 307.86912,173.89555 314.14572,172.04359 C 320.58918,170.14239 337.63334,164.92462 341.75,163.59302 L 344,162.86522 L 343.87434,174.68261 C 343.7131,189.84631 342.41037,217.06454 342.16004,210.5 z M 94,200.55902 C 94,199.70156 94.45,199 95,199 C 96.293907,199 96.293907,200.70032 95,201.5 C 94.45,201.83992 94,201.41648 94,200.55902 z M 240.27083,174.39583 C 240.60313,174.06354 241.46562,174.02802 242.1875,174.31689 C 242.98523,174.63611 242.74828,174.87307 241.58333,174.92105 C 240.52917,174.96447 239.93854,174.72813 240.27083,174.39583 z M 94,173 C 94,172.45 94.45,172 95,172 C 95.55,172 96,172.45 96,173 C 96,173.55 95.55,174 95,174 C 94.45,174 94,173.55 94,173 z M 339.27083,159.39583 C 339.60312,159.06354 340.46562,159.02802 341.1875,159.31689 C 341.98523,159.63611 341.74828,159.87307 340.58333,159.92105 C 339.52917,159.96447 338.93854,159.72813 339.27083,159.39583 z M 351,155.97285 C 355.675,154.4231 360.175,153.16226 361,153.17099 C 361.825,153.17972 358.45,154.48789 353.5,156.07805 C 348.55,157.6682 344.05,158.92904 343.5,158.87991 C 342.95,158.83078 346.325,157.52261 351,155.97285 z M 364.5,152 C 365.6,151.52731 367.175,151.14057 368,151.14057 C 368.94548,151.14057 368.76064,151.45828 367.5,152 C 366.4,152.47269 364.825,152.85943 364,152.85943 C 363.05452,152.85943 363.23936,152.54172 364.5,152 z M 374.5,149 C 375.6,148.52731 377.175,148.14057 378,148.14057 C 378.94548,148.14057 378.76064,148.45828 377.5,149 C 376.4,149.47269 374.825,149.85943 374,149.85943 C 373.05452,149.85943 373.23936,149.54172 374.5,149 z M 117.27083,124.39583 C 117.60313,124.06354 118.46563,124.02802 119.1875,124.31689 C 119.98523,124.63611 119.74828,124.87307 118.58333,124.92105 C 117.52917,124.96447 116.93854,124.72813 117.27083,124.39583 z M 267.5,124 C 267.16008,123.45 267.35852,123 267.94098,123 C 268.52344,123 269,123.45 269,124 C 269,125.28138 268.29194,125.28138 267.5,124 z M 136.25,121.16976 C 140.5125,120.33598 144,119.2817 144,118.8269 C 144,118.37211 143.2125,117.99977 142.25,117.9995 C 141.2875,117.99922 138.13267,117.09922 135.23927,115.9995 C 132.34587,114.89977 128.97087,113.99311 127.73927,113.98469 C 125.92678,113.97229 125.78588,113.78462 127,113 C 127.83979,112.45728 137.36571,112.02389 148.64301,112.01531 C 164.67583,112.00312 168.8921,112.27642 169.30587,113.35469 C 169.71008,114.40805 170.90166,114.51557 174.66285,113.83808 C 187.18566,111.58239 200.6915,111.88356 210.25,114.63165 C 211.38633,114.95834 212,114.58514 212,113.56739 C 212,112.18367 214.9002,112.01199 236.75,112.10236 C 251.61648,112.16385 260.302,112.53264 258.5,113.02589 C 252.09869,114.77808 247.51257,116.93414 247.78984,118.06104 C 247.99449,118.89279 246.81879,119.06796 243.78984,118.65701 C 241.43043,118.33689 237.25,117.85275 234.5,117.58113 L 229.5,117.08727 L 234,118.03218 C 236.475,118.55187 241.875,119.57322 246,120.30184 L 253.5,121.62661 L 244.5,121.78568 C 239.55,121.87317 211.425,122.11147 182,122.31523 C 132.04666,122.66115 129.01377,122.58521 136.25,121.16976 z M 227.73097,116.30701 C 226.758,116.05347 225.408,116.07014 224.73097,116.34406 C 224.05394,116.61799 224.85,116.82543 226.5,116.80505 C 228.15,116.78467 228.70394,116.56055 227.73097,116.30701 z M 255.75,122.33772 C 256.4375,122.06031 257.5625,122.06031 258.25,122.33772 C 258.9375,122.61513 258.375,122.84211 257,122.84211 C 255.625,122.84211 255.0625,122.61513 255.75,122.33772 z M 156.17618,109.25046 C 176.34809,109.09924 209.64809,109.09917 230.17618,109.2503 C 250.70428,109.40144 234.2,109.52516 193.5,109.52525 C 152.8,109.52534 136.00428,109.40168 156.17618,109.25046 z " style="fill:#6d4923" id="path2280"/>
      <path d="M 67.614144,285.56314 C 67.917399,284.77287 68.803276,284.37102 69.582759,284.67013 C 71.668794,285.47062 71.306859,287 69.031385,287 C 67.730796,287 67.249872,286.51242 67.614144,285.56314 z M 320.27083,272.39583 C 320.60312,272.06354 321.46562,272.02802 322.1875,272.31689 C 322.98523,272.63611 322.74828,272.87307 321.58333,272.92105 C 320.52917,272.96447 319.93854,272.72812 320.27083,272.39583 z M 15.693853,267.36052 C 15.342139,267.00881 15.298233,266.32647 15.596285,265.84421 C 16.235467,264.80999 18,265.70176 18,267.05902 C 18,268.13411 16.644639,268.31131 15.693853,267.36052 z M 129.01531,260.25 C 129.02639,256.81453 129.29889,255.91511 130,257 C 131.27768,258.97706 131.27768,265 130,265 C 129.45,265 129.00689,262.8625 129.01531,260.25 z M 337,263.55902 C 337,263.31648 337.45,262.83992 338,262.5 C 338.55,262.16008 339,262.35852 339,262.94098 C 339,263.52344 338.55,264 338,264 C 337.45,264 337,263.80156 337,263.55902 z M 362.66667,252.33333 C 362.3,251.96667 362,251.20167 362,250.63333 C 362,250.00673 362.46577,250.06577 363.18333,250.78333 C 363.83417,251.43417 364.13417,252.19917 363.85,252.48333 C 363.56583,252.7675 363.03333,252.7 362.66667,252.33333 z M 178.65641,197.99828 C 178.74771,189.24246 178.43548,183.23086 177.90641,183.55784 C 177.40789,183.86595 177,183.13899 177,181.94239 C 177,180.25907 176.54742,179.88509 175,180.28975 C 173.9,180.57741 173,180.50153 173,180.12113 C 173,179.74073 170.4125,179.32228 167.25,179.19123 C 164.0875,179.06019 161.35,178.51356 161.16667,177.97649 C 160.98333,177.43942 158.73333,176.99311 156.16667,176.98469 C 152.65154,176.97315 151.87014,176.71444 153,175.93626 C 154.11108,175.17102 153.33324,174.98053 150,175.20157 C 146.22607,175.45185 145.52241,175.21764 145.63889,173.75 C 145.74862,172.36734 144.98393,172 141.99588,172 C 139.48854,172 138.01179,171.47312 137.61405,170.43662 C 137.28409,169.57676 136.5575,169.15545 135.99939,169.50038 C 135.44129,169.8453 134.25204,169.3949 133.35661,168.49947 C 131.25525,166.39811 130.23032,167.53026 129.73493,172.5 C 129.40709,175.78889 128.87049,167.47436 128.5625,154.33333 C 128.52812,152.86667 129.03902,151.48699 129.69783,151.26739 C 130.54669,150.98444 130.72707,151.907 130.31699,154.43406 C 129.84102,157.36712 130.04437,158 131.46278,158 C 132.41123,158 133.4187,157.1149 133.70159,156.03312 C 133.98448,154.95133 134.95485,153.87445 135.85797,153.64004 C 147.8609,150.52462 147.69051,150.59727 144.5,149.9554 C 139.20975,148.89112 162.37039,147.49063 182.5,147.6576 C 193.81538,147.75146 206.34681,148.48633 213.4836,149.47454 C 226.54034,151.28246 230.39031,152.56836 220,151.65103 C 215.9191,151.29074 214.64899,151.37558 216.58729,151.879 C 218.2853,152.32002 220.0853,152.92787 220.58729,153.22978 C 221.08928,153.5317 227.35,154.9972 234.5,156.48646 C 248.96527,159.4994 251.86038,160.5406 246.2671,160.71837 C 232.19696,161.16557 221.21792,162.8518 216.06285,165.35735 C 213.07241,166.81081 210.03491,168 209.31285,168 C 208.59078,168 208,168.45 208,169 C 208,169.55 206.93569,170 205.63486,170 C 204.33403,170 202.08206,170.93421 200.63048,172.07603 C 199.1789,173.21784 195.20707,175.24316 191.8042,176.57673 C 188.40133,177.91031 185.26019,179.5636 184.82389,180.25071 C 184.27531,181.11466 184.0259,181.14332 184.01531,180.34362 C 184.00655,179.68163 183.14494,179.41084 182,179.71025 C 180.10267,180.20642 180,181.07427 180,196.61663 C 180,205.62748 179.6625,212.99976 179.25,212.99946 C 178.8375,212.99916 178.57039,206.24863 178.65641,197.99828 z M 129.07895,190.75 C 129.1317,189.24656 129.34735,188.99771 129.72889,190 C 130.04294,190.825 130.79491,191.83061 131.39994,192.23469 C 132.07848,192.68786 131.82943,192.97524 130.75,192.98469 C 129.57428,192.99497 129.02591,192.26164 129.07895,190.75 z M 133.27083,191.39583 C 133.60313,191.06354 134.46562,191.02802 135.1875,191.31689 C 135.98523,191.63611 135.74828,191.87307 134.58333,191.92105 C 133.52917,191.96447 132.93854,191.72813 133.27083,191.39583 z M 341,169.58333 C 341,165.16217 341.32877,164 342.57948,164 C 343.8575,164 344.09607,164.98613 343.82948,169.16668 C 343.3579,176.56171 341,176.90892 341,169.58333 z M 299.14034,166.8528 C 297.29253,166.32105 295.95114,165.71552 296.15948,165.50718 C 296.94129,164.72538 304.93583,166.29482 304.42034,167.1289 C 303.79344,168.14323 303.58701,168.13244 299.14034,166.8528 z M 307.75,167.33772 C 308.4375,167.06031 309.5625,167.06031 310.25,167.33772 C 310.9375,167.61513 310.375,167.84211 309,167.84211 C 307.625,167.84211 307.0625,167.61513 307.75,167.33772 z M 364.40672,164.60258 C 362.5181,162.55961 362.13567,158.16192 363.79138,157.52656 C 365.90431,156.71575 366.16615,157.26787 365.81258,161.78852 C 365.58136,164.74492 365.21543,165.47739 364.40672,164.60258 z M 282.12993,163.4384 C 278.07638,162.69853 274.49328,161.82661 274.16747,161.5008 C 273.46792,160.80125 280.07771,161.73437 288.5,163.52415 C 296.46134,165.21598 291.50308,165.14923 282.12993,163.4384 z M 263.27083,159.39583 C 263.60312,159.06354 264.46562,159.02802 265.1875,159.31689 C 265.98523,159.63611 265.74828,159.87307 264.58333,159.92105 C 263.52917,159.96447 262.93854,159.72813 263.27083,159.39583 z M 256,158 C 254.02042,157.36603 253.91633,157.19936 255.5,157.19936 C 256.6,157.19936 258.625,157.55965 260,158 C 261.97958,158.63397 262.08367,158.80064 260.5,158.80064 C 259.4,158.80064 257.375,158.44035 256,158 z M 249.27083,156.39583 C 249.60313,156.06354 250.46562,156.02802 251.1875,156.31689 C 251.98523,156.63611 251.74828,156.87307 250.58333,156.92105 C 249.52917,156.96447 248.93854,156.72813 249.27083,156.39583 z M 243.27083,155.39583 C 243.60313,155.06354 244.46562,155.02802 245.1875,155.31689 C 245.98523,155.63611 245.74828,155.87307 244.58333,155.92105 C 243.52917,155.96447 242.93854,155.72813 243.27083,155.39583 z M 238.27083,154.39583 C 238.60313,154.06354 239.46562,154.02802 240.1875,154.31689 C 240.98523,154.63611 240.74828,154.87307 239.58333,154.92105 C 238.52917,154.96447 237.93854,154.72813 238.27083,154.39583 z M 229.5,153 C 226.80528,152.31431 226.7544,152.23473 229,152.21799 C 230.375,152.20775 232.625,152.55965 234,153 C 235.95899,153.62738 236.0672,153.79661 234.5,153.78201 C 233.4,153.77176 231.15,153.41985 229.5,153 z M 136.73097,150.34406 C 137.408,150.07014 138.758,150.05347 139.73097,150.30701 C 140.70394,150.56055 140.15,150.78467 138.5,150.80505 C 136.85,150.82543 136.05394,150.61799 136.73097,150.34406 z M 155.5,121 L 140.5,120.5 L 153.37726,118.04242 C 160.45975,116.69075 165.72148,115.40716 165.06999,115.19 C 164.41849,114.97283 161.09873,115.28229 157.69273,115.87768 C 148.07655,117.55864 145.46783,117.63758 145.75,116.23906 C 145.89821,115.50452 144.88026,114.97419 143.25,114.93661 L 140.5,114.87323 L 143,113.85216 C 144.375,113.29058 150.7875,112.57789 157.25,112.26841 C 168.04141,111.75163 169,111.85029 169,113.47786 C 169,114.888 169.57545,115.13491 171.81707,114.68659 C 186.55046,111.73991 194.02654,111.72944 209.25,114.63419 C 211.31074,115.02739 212,114.76304 212,113.57946 C 212,112.18626 214.50591,112.01306 233.25,112.11077 C 253.68228,112.21729 254.26912,112.27471 248.5,113.60292 C 245.2,114.36268 240.89811,115.4816 238.94024,116.08942 C 235.63804,117.11459 225.604,116.29418 217.25,114.31598 C 216.0125,114.02294 215,114.20401 215,114.71834 C 215,115.23268 220.7375,116.51361 227.75,117.56486 C 240.39397,119.46033 240.45426,119.4819 235,120.15819 C 227.68543,121.06514 174.3856,121.62952 155.5,121 z M 171.73097,109.34406 C 172.408,109.07014 173.758,109.05347 174.73097,109.30701 C 175.70394,109.56055 175.15,109.78467 173.5,109.80505 C 171.85,109.82543 171.05394,109.61799 171.73097,109.34406 z M 179.27083,109.39583 C 179.60313,109.06354 180.46562,109.02802 181.1875,109.31689 C 181.98523,109.63611 181.74828,109.87307 180.58333,109.92105 C 179.52917,109.96447 178.93854,109.72813 179.27083,109.39583 z M 193.75,109.29427 C 194.9875,109.05591 197.0125,109.05591 198.25,109.29427 C 199.4875,109.53262 198.475,109.72764 196,109.72764 C 193.525,109.72764 192.5125,109.53262 193.75,109.29427 z M 217.26375,109.28242 C 218.78381,109.05256 221.03381,109.05871 222.26375,109.29607 C 223.49369,109.53343 222.25,109.72149 219.5,109.71399 C 216.75,109.70648 215.74369,109.51227 217.26375,109.28242 z M 240.73097,109.34406 C 241.408,109.07014 242.758,109.05347 243.73097,109.30701 C 244.70394,109.56055 244.15,109.78467 242.5,109.80505 C 240.85,109.82543 240.05394,109.61799 240.73097,109.34406 z " style="fill:#55310c" id="path2278"/>
    </g>

</svg>